<svg id="Layer_1" xmlns="http://www.w3.org/2000/svg" viewBox="0 0 450 450"><style>.st0{fill:#7354af}.st1{fill:#fff}.st5,.st6{opacity:.59;fill:#fff}.st6{opacity:.37}.st12{fill:#ed6000}.st14,.st15{fill:#c96827}.st15{opacity:.55}.st20{fill:#50288e}.st21{fill:#232121}.st22{fill:#260500}.st23{fill:#efc7bf}.st24{fill:#d6a7a1}.st25{fill:#d8d6d6}.st27{fill:#e0dada}.st28{fill:#a80000}.st32{fill:#4f1109}.st39{fill:#ffb176}.st41{fill:#720000}.st42{fill:#efbb3c}.st44{fill:#e5a61a}</style><path class="st0" d="M-594-1H768v454H-594z"/><path class="st1" d="M-486.6 254.8l-9.8-17.8h-7v17.8h-8.1v-45.5h15.4c9.5 0 16.7 3.3 16.7 13.5 0 7-3.6 11.1-9.1 13l10.9 19h-9zm-16.7-24.2h6.5c6.2 0 9.6-2.6 9.6-7.8 0-5.2-3.4-7-9.6-7h-6.5v14.8zM-457.1 219.8c8.6 0 16.3 6.5 16.3 18 0 11.3-7.7 17.9-16.3 17.9-8.5 0-16.2-6.5-16.2-17.9 0-11.5 7.7-18 16.2-18zm0 29.3c5 0 8.1-4.5 8.1-11.3 0-6.9-3.1-11.4-8.1-11.4s-8 4.5-8 11.4c0 6.8 3 11.3 8 11.3zM-418 219.8c4.4 0 7.7 1.7 10 4l-3.8 5.1c-1.8-1.6-3.6-2.5-5.8-2.5-5.5 0-9.3 4.5-9.3 11.4 0 6.8 3.8 11.3 9.1 11.3 2.8 0 5.1-1.4 7-2.9l3.3 5.1c-3.2 2.9-7.3 4.4-11.2 4.4-9.3 0-16.5-6.5-16.5-17.9.1-11.5 8.1-18 17.2-18zM-400.7 205.6h7.9v30.7h.2l12.7-15.7h8.8l-11.7 13.9 12.9 20.3h-8.7l-8.8-14.8-5.4 6.1v8.7h-7.9v-49.2zM-350.1 220.6h6.6l.6 4.7h.3c2.9-3.1 6.2-5.5 10.4-5.5 5 0 7.9 2.3 9.5 6.1 3.3-3.5 6.7-6.1 11-6.1 7.2 0 10.6 4.9 10.6 13.6v21.4h-8.1v-20.4c0-5.6-1.7-7.7-5.2-7.7-2.2 0-4.5 1.4-7.2 4.2v23.9h-8v-20.4c0-5.6-1.7-7.7-5.3-7.7-2.1 0-4.5 1.4-7.2 4.2v23.9h-8v-34.2zM-291.8 220.6h8V241c0 5.6 1.6 7.7 5.3 7.7 3 0 5-1.4 7.6-4.7v-23.4h8v34.2h-6.5l-.6-5h-.2c-3 3.5-6.3 5.8-11 5.8-7.3 0-10.5-4.9-10.5-13.6v-21.4zM-252.4 245.7c3.1 2.4 6 3.8 9.5 3.8 3.7 0 5.4-1.7 5.4-4.1 0-2.9-3.7-4.1-7.3-5.5-4.5-1.7-9.6-4.2-9.6-10 0-6 4.8-10.2 12.5-10.2 4.7 0 8.6 1.9 11.3 4.1l-3.7 4.9c-2.4-1.7-4.8-2.9-7.5-2.9-3.4 0-5 1.6-5 3.8 0 2.7 3.4 3.8 7.1 5.1 4.7 1.7 9.8 4 9.8 10.4 0 5.8-4.7 10.6-13.3 10.6-4.7 0-9.6-2-12.9-4.7l3.7-5.3zM-223.6 210.1c0-2.7 2.1-4.6 4.9-4.6 2.9 0 4.9 1.9 4.9 4.6 0 2.6-2.1 4.5-4.9 4.5-2.8 0-4.9-1.9-4.9-4.5zm.9 10.5h8v34.2h-8v-34.2zM-189.6 219.8c4.4 0 7.7 1.7 10 4l-3.8 5.1c-1.8-1.6-3.6-2.5-5.8-2.5-5.5 0-9.3 4.5-9.3 11.4 0 6.8 3.8 11.3 9.1 11.3 2.8 0 5.1-1.4 7-2.9l3.3 5.1c-3.2 2.9-7.3 4.4-11.2 4.4-9.3 0-16.5-6.5-16.5-17.9.1-11.5 8.1-18 17.2-18z"/><path d="M222 192l14.5-4.2.4 1.4-14.5 4.2-.4-1.4zm21.8-6.4l14.5-4.2.4 1.5-14.5 4.2-.4-1.5zm21.8-6.3l14.5-4.2.4 1.5-14.5 4.2-.4-1.5zm21.8-6.3l14.5-4.2.4 1.4-14.5 4.2-.4-1.4zm21.8-6.4l14.5-4.2.4 1.5-14.5 4.2-.4-1.5zm21.8-6.3l14.5-4.2.4 1.5-14.5 4.2-.4-1.5zm21.8-6.3l14.5-4.2.4 1.5-14.5 4.2-.4-1.5zm21.8-6.4l14.5-4.2.4 1.5-14.5 4.2-.4-1.5zm21.8-6.3l14.5-4.2.4 1.5-14.5 4.2-.4-1.5zm21.7-6.4l14.5-4.2.4 1.5-14.5 4.2-.4-1.5zm21.8-6.3l14.5-4.2.4 1.5-14.5 4.2-.4-1.5zm172.8-5.5l14.8-3.2.3 1.5-14.8 3.2-.3-1.5zm-151-.8l14.5-4.2.4 1.5-14.5 4.2-.4-1.5zm173.2-4.1l14.8-3.2.3 1.5-14.8 3.2-.3-1.5zM602 105l1.4-.6 6.3 13.7-1.4.6L602 105zm-118.5 10.9l14.5-4.2.4 1.4-14.5 4.2-.4-1.4zm173.6-2.6l14.8-3.2.3 1.5-14.8 3.2-.3-1.5zm-151.8-3.7l14.5-4.2.4 1.5-14.5 4.2-.4-1.5zm174-1.1l14.8-3.2.3 1.5-14.8 3.2-.3-1.5zm22.1-4.9l14.8-3.2.3 1.5-14.8 3.2-.3-1.5zm-174.3-.3l14.5-4.2.4 1.5-14.5 4.2-.4-1.5zm196.5-4.5l14.8-3.2.3 1.5-14.8 3.2-.3-1.5zm-174.7-1.9l14.5-4.2.4 1.4-14.5 4.2-.4-1.4zM593 85.7l-.5-1.4 1.3-.4 6.3 13.7-1.4.6-5.7-12.5zm152.8 8.2l14.8-3.2.3 1.5-14.8 3.2-.3-1.5zm-175.1-3.3l14.5-4.2.4 1.4-14.4 4.2-.5-1.4z" opacity=".65" fill="#fff"/><path d="M-573.8 444.6l11.7-3.3.4 1.5-11.7 3.3-.4-1.5zm20.4-5.7l11.7-3.3.4 1.5-11.7 3.3-.4-1.5zm20.4-5.7l11.7-3.3.4 1.5-11.7 3.3-.4-1.5zm20.4-5.8l11.7-3.3.4 1.5-11.7 3.3-.4-1.5zm20.4-5.6l11.7-3.3.4 1.5-11.7 3.3-.4-1.5zm20.4-5.7l11.7-3.3.4 1.5-11.7 3.3-.4-1.5zm20.4-5.7l11.7-3.3.4 1.5-11.7 3.3-.4-1.5zm20.4-5.8l11.7-3.3.4 1.5-11.7 3.3-.4-1.5zm20.4-5.6l11.7-3.3.4 1.5-11.7 3.3-.4-1.5zm20.4-5.7l11.7-3.3.4 1.5-11.7 3.3-.4-1.5zm20.5-5.8l11.7-3.3.4 1.5-11.7 3.3-.4-1.5zm20.4-5.6l11.7-3.3.4 1.5-11.7 3.3-.4-1.5zm20.4-5.7l11.7-3.3.4 1.5-11.7 3.3-.4-1.5zm20.4-5.8l11.7-3.3.4 1.5-11.7 3.3-.4-1.5zm20.4-5.6l11.7-3.3.4 1.5-11.7 3.3-.4-1.5zm20.4-5.7l11.7-3.3.4 1.5-11.7 3.3-.4-1.5zm20.4-5.7l11.7-3.3.4 1.5-11.7 3.3-.4-1.5zm20.4-5.8l11.7-3.3.4 1.5-11.7 3.3-.4-1.5zm20.4-5.6l11.7-3.3.4 1.5-11.7 3.3-.4-1.5zm20.4-5.7l11.7-3.3.4 1.5-11.7 3.3-.4-1.5zm20.4-5.7l11.7-3.3.4 1.5-11.7 3.3-.4-1.5zm20.4-5.8l11.7-3.3.4 1.5-11.7 3.3-.4-1.5zm20.4-5.6l11.7-3.3.4 1.5-11.7 3.3-.4-1.5zm11-19.1l1.4-.5 3.7 11.5-1.4.5-3.7-11.5zm-6.4-20.2l1.4-.5 3.7 11.5-1.4.5-3.7-11.5zm6.4-4.8l11.8-2.8.4 1.5-11.8 2.8-.4-1.5zm20.5-5l11.8-2.9.4 1.5-11.8 2.9-.4-1.5zm20.6-4.9l11.8-2.9.4 1.5-11.8 2.9-.4-1.5zm20.6-5l11.8-2.8.4 1.5-11.8 2.9-.4-1.6zm20.6-5l11.8-2.9.4 1.5-11.8 2.8-.4-1.4zm20.6-5l11.8-2.9.4 1.5-11.8 2.8-.4-1.4zm20.6-5l11.8-2.9.4 1.5-11.8 2.9-.4-1.5zm20.6-5l11.8-2.8.3 1.5-11.8 2.9-.3-1.6zm20.6-4.9l11.8-2.8.4 1.5-11.8 2.8-.4-1.5zm20.6-5l11.8-2.9.4 1.5-11.8 2.8-.4-1.4zm20.6-5l11.8-2.9.4 1.5-11.8 2.9-.4-1.5zm20.6-5l11.8-2.8.4 1.5-11.8 2.9-.4-1.6zm20.6-5l11.8-2.8.4 1.5-11.8 2.8-.4-1.5zm20.5-5l11.8-2.9.4 1.5-11.8 2.9-.4-1.5zm20.6-5l11.8-2.9.4 1.5-11.8 2.9-.4-1.5zm20.6-4.9l11.8-2.8.4 1.5-11.8 2.9-.4-1.6z" opacity=".95" fill="#fff"/><path d="M183.9 181.5l.2-1.5 12 1.5-.2 1.5-12-1.5zm-21-2.6l.2-1.5 12 1.5-.2 1.5-12-1.5zm-21.1-2.7l.2-1.5 12 1.5-.2 1.5-12-1.5zm-21-2.6l.2-1.5 12 1.5-.2 1.5-12-1.5zm-21-2.6l.2-1.5 12 1.5-.2 1.5-12-1.5zm-21-2.6l.2-1.5 12 1.5-.2 1.5-12-1.5zm-21.1-2.6l.2-1.5 12 1.5-.2 1.5-12-1.5zm-21-2.7l.2-1.5 12 1.5-.2 1.5-12-1.5zm-21-2.6l.2-1.5 12 1.5-.2 1.5-12-1.5zm-21-2.6l.2-1.5 12 1.5-.2 1.5-12-1.5zm-21.1-2.6l.2-1.5 12 1.5-.2 1.5-12-1.5zm-21-2.6l.2-1.5 12 1.5-.2 1.5-12-1.5zm-21-2.7l.2-1.5 12 1.5-.2 1.5-12-1.5zm-21-2.6l.2-1.5 12 1.5-.2 1.5-12-1.5zm-21.1-2.6l.2-1.5 12 1.5-.2 1.5-12-1.5zm-21-2.6l.2-1.5 12 1.5-.2 1.5-12-1.5zm-21-2.7l.2-1.5 12 1.5-.2 1.5-12-1.5zm-21-2.6l.2-1.5 12 1.5-.2 1.5-12-1.5zm-21-2.6l.2-1.5 12 1.5-.2 1.5-12-1.5zm-21.1-2.6l.2-1.5 12 1.5-.2 1.5-12-1.5zm-21-2.6l.2-1.5 12 1.5-.2 1.5-12-1.5zm-21-2.7l.2-1.5 12 1.5-.2 1.5-12-1.5zm-21-2.6l.2-1.5 12 1.5-.2 1.5-12-1.5zm-21.1-2.6l.2-1.5 12 1.5-.2 1.5-12-1.5zm-21-2.6l.2-1.5 12 1.5-.2 1.5-12-1.5zm-21-2.6l.2-1.5 12 1.5-.2 1.5-12-1.5zm-21-2.7l.2-1.5 12 1.5-.2 1.5-12-1.5zm-21.1-2.6l.2-1.5 12 1.5-.2 1.5-12-1.5zm-21-2.6l.2-1.5 12 1.5-.2 1.5-12-1.5zm-21-2.6l.2-1.5 12 1.5-.2 1.5-12-1.5zm-21-2.7l.2-1.5 12 1.5-.2 1.5-12-1.5zm-21.1-2.6l.2-1.5 12 1.5-.2 1.5-12-1.5zm-21-2.6l.2-1.5 12 1.5-.2 1.5-12-1.5zm-21-2.6l.2-1.5 12 1.5-.2 1.5-12-1.5zm-21-2.6l.2-1.5 12 1.5-.2 1.5-12-1.5zm-21-2.7l.2-1.5 12 1.5-.2 1.5-12-1.5zm-21.1-2.6l.2-1.5 12 1.5-.2 1.5-12-1.5zm-20.8-4.1l12 1.5-.2 1.5-12-1.4.2-1.6z" opacity=".65" fill="#c96827"/><path class="st5" d="M132.5-1l94.2 190.2L34-1z"/><path class="st6" d="M-68.9-1l295.6 190.2L-206.7-1z"/><path class="st5" d="M-439.9-1l647.3 190.2L-594-1z"/><path class="st6" d="M206.6 182.1L264.1-1h78.7z"/><path opacity=".54" fill="#fff" d="M218.7 179.1L463.8-1h81.7z"/><path class="st5" d="M217.1 188.2L768-1v66.6z"/><path class="st1" d="M277.1 379.6c-.2-.4.1-.9.5-1 2.1-.7 4.1-1.4 6.2-2.2.4-.2.9.1 1.1.5.2.4 0 .9-.5 1-2 .8-4.1 1.5-6.2 2.2h-.2c-.5 0-.8-.2-.9-.5zm-138.5 2.8c-2.1-.6-4.2-1.3-6.3-2-.4-.1-.7-.6-.5-1 .2-.4.6-.6 1-.5 2.1.7 4.1 1.4 6.2 2 .4.1.7.6.5 1-.1.3-.4.5-.8.6.1-.1 0-.1-.1-.1zm153.8-8.6c-.2-.4 0-.9.4-1 2-.8 4-1.7 5.9-2.6.4-.2.9 0 1.1.4.2.4 0 .9-.4 1.1-2 .9-4 1.8-6 2.6-.1 0-.2.1-.3.1-.2-.1-.5-.3-.7-.6zM123 377c-2-.8-4.1-1.6-6.1-2.5-.4-.2-.6-.6-.4-1 .2-.4.7-.6 1.1-.4 2 .8 4 1.6 6.1 2.4.4.2.6.6.5 1-.1.3-.4.5-.8.5-.2.1-.3.1-.4 0zm184.2-10c-.2-.4-.1-.9.3-1.1l5.7-3c.4-.2.9-.1 1.1.3.2.4.1.9-.3 1.1-1.9 1-3.8 2.1-5.8 3.1-.1.1-.2.1-.4.1-.1-.1-.4-.2-.6-.5zm-199.3 3.6c-2-.9-3.9-1.9-5.9-2.9-.4-.2-.5-.7-.3-1.1.2-.4.7-.6 1.1-.3 1.9 1 3.9 1.9 5.9 2.9.4.2.6.7.4 1.1-.1.3-.4.4-.7.5-.2-.1-.4-.2-.5-.2zm213.6-11.5c-.2-.4-.1-.9.3-1.1 1.8-1.1 3.7-2.3 5.5-3.5.4-.3.9-.1 1.1.2.3.4.2.9-.2 1.1-1.8 1.2-3.7 2.3-5.5 3.5-.1.1-.3.1-.4.1-.4.1-.6-.1-.8-.3zm-228.2 4l-5.7-3.3c-.4-.2-.5-.7-.3-1.1.2-.4.7-.5 1.1-.3 1.9 1.1 3.7 2.2 5.6 3.3.4.2.5.7.3 1.1-.1.2-.4.4-.7.4 0 0-.1-.1-.3-.1zm241.8-12.9c-.3-.4-.2-.9.2-1.1 1.8-1.3 3.5-2.5 5.2-3.8.4-.3.9-.2 1.2.1.3.4.2.9-.1 1.1-1.7 1.3-3.5 2.6-5.3 3.9-.1.1-.3.2-.5.2-.2-.1-.5-.2-.7-.4zm-255.7 4.3c-1.8-1.2-3.6-2.4-5.4-3.7-.4-.3-.5-.8-.2-1.1.3-.4.8-.4 1.2-.2 1.8 1.2 3.5 2.5 5.3 3.7.4.3.5.7.2 1.1-.2.2-.4.3-.7.3-.1 0-.3 0-.4-.1zm268.7-14.2c-.3-.3-.3-.8.1-1.1 1.7-1.4 3.3-2.8 4.9-4.2.3-.3.9-.3 1.2.1.3.3.3.8-.1 1.1-1.6 1.4-3.3 2.8-4.9 4.2-.2.1-.3.2-.5.2-.3 0-.6-.1-.7-.3zm-282 4.7c-1.7-1.3-3.4-2.7-5.1-4.1-.3-.3-.4-.8-.1-1.1.3-.3.8-.4 1.2-.1 1.7 1.4 3.3 2.7 5 4 .4.3.4.8.1 1.1-.2.2-.4.3-.6.3-.1 0-.3 0-.5-.1zm294.1-15.4c-.3-.3-.3-.8 0-1.1 1.6-1.5 3.1-3 4.6-4.5.3-.3.8-.3 1.2 0 .3.3.3.8 0 1.1l-4.6 4.6c-.2.1-.4.2-.6.2l-.6-.3zm-306.5 4.9c-1.6-1.5-3.2-2.9-4.8-4.4-.3-.3-.3-.8 0-1.1.3-.3.8-.3 1.2 0 1.6 1.5 3.1 3 4.7 4.4.3.3.4.8 0 1.1-.2.2-.4.2-.6.3-.2-.1-.4-.1-.5-.3zM371.5 318c-.3-.3-.4-.8-.1-1.1 1.4-1.6 2.8-3.2 4.2-4.9.3-.3.8-.4 1.2-.1.4.3.4.8.1 1.1-1.4 1.7-2.8 3.3-4.3 4.9-.2.2-.4.3-.6.3-.1 0-.3-.1-.5-.2zM42 323.2c-1.5-1.6-3-3.2-4.4-4.7-.3-.3-.3-.8.1-1.1.3-.3.9-.3 1.2.1 1.4 1.6 2.9 3.2 4.4 4.7.3.3.3.8 0 1.1-.2.1-.3.2-.5.2-.4 0-.6-.1-.8-.3zm339.9-17.6c-.4-.3-.4-.8-.2-1.1 1.3-1.7 2.6-3.4 3.9-5.2.3-.4.8-.4 1.1-.2.4.3.5.8.2 1.1-1.3 1.7-2.6 3.5-3.9 5.2-.2.2-.4.3-.6.3-.2.1-.3 0-.5-.1zm-350.6 5.5c-1.4-1.7-2.7-3.4-4-5.1-.3-.4-.2-.9.2-1.1.4-.3.9-.2 1.1.2 1.3 1.7 2.6 3.4 4 5 .3.3.2.8-.1 1.1-.1.1-.3.2-.5.2-.3 0-.6-.1-.7-.3zm360-18.6c-.4-.2-.5-.7-.3-1.1 1.2-1.8 2.3-3.6 3.5-5.4.2-.4.7-.5 1.1-.3.4.2.5.7.3 1.1-1.1 1.8-2.3 3.7-3.5 5.5-.2.2-.4.4-.7.4-.1-.1-.2-.1-.4-.2zm-369.8 5.7c-1.2-1.8-2.5-3.5-3.6-5.3-.2-.4-.1-.9.2-1.1.4-.2.9-.1 1.1.2 1.2 1.8 2.4 3.5 3.6 5.3.2.4.2.9-.2 1.1-.1.1-.3.1-.4.1-.3.1-.6 0-.7-.3zm378.3-19.5c-.4-.2-.6-.7-.3-1.1 1-1.9 2.1-3.8 3-5.7.2-.4.7-.5 1.1-.4.4.2.6.7.4 1.1-1 1.9-2 3.8-3.1 5.7-.1.3-.4.4-.7.4-.2.1-.3.1-.4 0zm-387.1 6c-1.1-1.8-2.2-3.7-3.2-5.6-.2-.4-.1-.9.3-1.1.4-.2.9-.1 1.1.3 1 1.9 2.1 3.7 3.2 5.5.2.4.1.9-.3 1.1-.1.1-.3.1-.4.1-.3.1-.6 0-.7-.3zm394.4-20.3c-.4-.2-.6-.7-.4-1.1.9-1.9 1.8-3.9 2.6-5.9.2-.4.7-.6 1.1-.4.4.2.6.6.4 1-.8 2-1.7 4-2.6 5.9-.1.3-.4.5-.7.5-.2.1-.3.1-.4 0zM5 270.6c-.9-1.9-1.9-3.8-2.8-5.8-.2-.4 0-.9.4-1.1.4-.2.9 0 1.1.4.9 1.9 1.8 3.8 2.8 5.7.2.4 0 .9-.4 1.1-.1.1-.2.1-.3.1-.4.1-.7-.1-.8-.4zm408.3-21c-.4-.1-.6-.6-.5-1 .7-2 1.5-4 2.1-6 .1-.4.6-.6 1-.5.4.1.7.6.5 1-.7 2-1.4 4.1-2.2 6.1-.1.3-.4.5-.7.5 0 0-.1-.1-.2-.1zM-1.6 256c-.8-2-1.6-4-2.3-6-.2-.4.1-.9.5-1 .4-.2.9.1 1.1.5.7 2 1.5 4 2.3 6 .2.4 0 .9-.5 1-.1 0-.2.1-.3.1-.4-.1-.7-.3-.8-.6zm420-21.6c-.4-.1-.7-.6-.6-1 .6-2 1.1-4.1 1.7-6.2.1-.4.6-.7 1-.6.4.1.7.5.6 1-.5 2.1-1.1 4.1-1.7 6.2-.1.3-.4.6-.8.6h-.2zm-425.5 6.5c-.7-2-1.3-4.1-1.9-6.1-.1-.4.1-.9.6-1 .4-.1.9.1 1 .5.6 2 1.2 4.1 1.8 6.1.1.4-.1.9-.5 1h-.2c-.4.1-.7-.2-.8-.5zm429.3-22c-.4-.1-.7-.5-.7-.9l1.2-6.3c.1-.4.5-.7.9-.7.4.1.7.5.7.9l-1.2 6.3c-.1.4-.4.6-.8.6.1.1 0 .1-.1.1zm-433.6 6.5c-.5-2.1-1-4.2-1.4-6.3-.1-.4.2-.9.6-.9.4-.1.9.2 1 .6.4 2.1.9 4.2 1.4 6.2.1.4-.2.9-.6 1h-.2c-.4.1-.7-.2-.8-.6zm436.3-22.3c-.5-.1-.8-.5-.7-.9.3-2.1.5-4.2.7-6.3 0-.4.4-.8.9-.7.5 0 .8.4.7.9-.2 2.1-.4 4.3-.7 6.4-.1.4-.4.7-.8.7 0-.1 0-.1-.1-.1zm-439.4 6.6l-.9-6.3c-.1-.4.3-.8.7-.9.4-.1.9.3.9.7l.9 6.3c.1.4-.2.8-.7.9h-.1c-.4 0-.8-.3-.8-.7zm440.9-22.5c-.5 0-.8-.4-.8-.8.1-2.1.2-4.2.2-6.4 0-.4.4-.8.8-.8.5 0 .8.4.8.8 0 2.1-.1 4.3-.2 6.4 0 .5-.3.8-.8.8zm-442.8 6.6c-.2-2.1-.3-4.3-.4-6.4 0-.4.3-.8.8-.8.4 0 .8.3.9.8.1 2.1.2 4.2.4 6.3 0 .4-.3.8-.8.9-.5 0-.9-.4-.9-.8zm442.2-23.3v-1.2c-.1-1.7-.1-3.4-.2-5.1 0-.4.3-.8.8-.8s.8.3.9.8c.1 1.7.2 3.4.2 5.1v1.3c0 .4-.3.8-.8.8-.6-.1-.9-.5-.9-.9zm-442.8 13c-.1-2.1-.1-4.3-.1-6.4 0-.4.4-.8.8-.8.5 0 .8.4.8.8 0 2.1 0 4.2.1 6.4 0 .4-.3.8-.8.8-.4 0-.8-.3-.8-.8zm441.7-28.9c-.2-2.1-.5-4.2-.7-6.3-.1-.4.3-.8.7-.9.4-.1.9.3.9.7.3 2.1.5 4.2.7 6.4 0 .4-.3.8-.7.9h-.1c-.3-.1-.7-.4-.8-.8zm-440.8 13.7c-.5 0-.8-.4-.8-.8.1-2.1.2-4.3.4-6.4 0-.4.4-.8.9-.7.5 0 .8.4.8.8-.2 2.1-.3 4.2-.4 6.3-.1.5-.4.8-.9.8zm438.6-29.4c-.4-2.1-.8-4.2-1.2-6.2-.1-.4.2-.9.6-.9.4-.1.9.2 1 .6l1.2 6.3c.1.4-.2.8-.7.9h-.1c-.3-.1-.7-.3-.8-.7zm-437.4 13.5c-.5-.1-.8-.4-.7-.9.3-2.1.5-4.2.9-6.4.1-.4.5-.7.9-.7.5.1.8.5.7.9l-.9 6.3c0 .4-.4.7-.8.7 0 .1-.1.1-.1.1zm434-29.1c-.5-2.1-1.1-4.1-1.7-6.1-.1-.4.1-.9.6-1 .4-.1.9.1 1 .5.6 2 1.2 4.1 1.7 6.2.1.4-.2.9-.6 1h-.2c-.3 0-.7-.2-.8-.6zm-431.5 13.3c-.5-.1-.7-.5-.7-.9.4-2.1.9-4.2 1.3-6.3.1-.4.5-.7 1-.6.4.1.7.5.6 1-.5 2.1-.9 4.1-1.3 6.2-.1.4-.4.6-.8.6 0 .1-.1 0-.1 0zm426.9-28.5c-.7-2-1.4-4-2.2-6-.2-.4.1-.9.5-1 .4-.2.9.1 1 .5.8 2 1.5 4 2.2 6 .1.4-.1.9-.5 1h-.2c-.3 0-.7-.2-.8-.5zm-423.3 13c-.4-.1-.7-.6-.6-1 .6-2.1 1.2-4.1 1.8-6.2.1-.4.6-.7 1-.5.4.1.7.6.5 1-.6 2-1.2 4.1-1.8 6.1-.1.3-.4.6-.8.6h-.1zm417.6-27.9c-.8-2-1.7-3.9-2.6-5.8-.2-.4 0-.9.4-1.1.4-.2.9 0 1.1.4.9 1.9 1.8 3.9 2.6 5.8.2.4 0 .9-.4 1-.1 0-.2.1-.3.1-.4.1-.7-.1-.8-.4zM-3.9 105.8c-.4-.1-.6-.6-.5-1 .7-2 1.5-4 2.3-6 .2-.4.6-.6 1.1-.5.4.2.6.6.5 1-.8 2-1.6 4-2.3 6-.1.3-.4.5-.8.5h-.3zm405.8-27c-1-1.9-2-3.8-3.1-5.6-.2-.4-.1-.9.3-1.1.4-.2.9-.1 1.1.3 1 1.9 2.1 3.7 3.1 5.6.2.4 0 .9-.4 1.1-.1.1-.2.1-.3.1-.3.1-.6-.1-.7-.4zM2.1 90.9c-.4-.2-.6-.6-.4-1.1.9-2 1.8-3.9 2.8-5.8.2-.4.7-.6 1.1-.4.4.2.6.7.4 1.1-1 1.9-2 3.8-2.8 5.8-.1.3-.4.5-.7.5-.2-.1-.3-.1-.4-.1zM393.9 65c-1.1-1.8-2.3-3.6-3.5-5.4-.2-.4-.1-.9.2-1.1.4-.2.9-.1 1.1.2 1.2 1.8 2.4 3.6 3.5 5.4.2.4.1.9-.3 1.1-.1.1-.3.1-.4.1-.1.1-.4 0-.6-.3zM9.2 76.5c-.4-.2-.6-.7-.3-1.1 1-1.9 2.1-3.8 3.2-5.6.2-.4.7-.5 1.1-.3.4.2.5.7.3 1.1-1.1 1.8-2.1 3.7-3.2 5.6-.1.3-.4.4-.7.4-.1 0-.3-.1-.4-.1zm375.7-24.7l-3.9-5.1c-.3-.4-.2-.9.2-1.1.4-.3.9-.2 1.2.2l3.9 5.1c.3.4.2.9-.2 1.1-.1.1-.3.1-.5.1s-.5-.1-.7-.3zM17.4 62.6c-.4-.2-.5-.7-.3-1.1l3.6-5.4c.3-.4.8-.5 1.1-.2.4.2.5.7.2 1.1-1.2 1.8-2.4 3.5-3.6 5.3-.2.2-.4.4-.7.4 0 0-.1 0-.3-.1zm357.5-23.4c-1.4-1.6-2.8-3.2-4.3-4.8-.3-.3-.3-.8.1-1.1.3-.3.9-.3 1.2.1 1.5 1.6 2.9 3.2 4.3 4.8.3.3.2.8-.1 1.1-.2.1-.3.2-.5.2s-.5-.1-.7-.3zM26.7 49.4c-.4-.3-.4-.8-.2-1.1 1.3-1.7 2.7-3.4 4-5.1.3-.3.8-.4 1.2-.1.4.3.4.8.1 1.1-1.4 1.7-2.7 3.4-4 5.1-.2.2-.4.3-.6.3-.2 0-.4-.1-.5-.2zm337.3-22c-1.5-1.5-3.1-3-4.6-4.5-.3-.3-.3-.8 0-1.1.3-.3.8-.3 1.2 0 1.6 1.5 3.1 3 4.6 4.5.3.3.3.8 0 1.1-.2.1-.3.2-.5.2-.3 0-.5 0-.7-.2zM36.9 36.9c-.3-.3-.4-.8-.1-1.1 1.4-1.6 2.9-3.2 4.4-4.8.3-.3.8-.3 1.2 0 .3.3.4.8.1 1.1-1.5 1.6-2.9 3.2-4.3 4.8-.2.2-.4.3-.6.3-.3-.1-.5-.2-.7-.3zm315.3-20.5c-1.6-1.4-3.3-2.8-4.9-4.2-.3-.3-.4-.8-.1-1.1.3-.3.8-.4 1.2-.1 1.7 1.4 3.3 2.8 5 4.2.3.3.4.8.1 1.1-.2.2-.4.3-.6.3-.3 0-.5-.1-.7-.2zM48.1 25.1c-.3-.3-.3-.8 0-1.1 1.6-1.5 3.1-3 4.7-4.5.3-.3.9-.3 1.2 0 .3.3.3.8 0 1.1-1.6 1.5-3.2 2.9-4.7 4.4-.2.1-.4.2-.6.2-.2.2-.5.1-.6-.1zM339.6 6.3c-1.7-1.3-3.5-2.6-5.3-3.8-.4-.3-.5-.8-.2-1.1.3-.4.8-.4 1.2-.2 1.8 1.3 3.5 2.5 5.3 3.8.4.3.4.8.1 1.1-.2.2-.4.3-.6.3-.1 0-.3 0-.5-.1zM60.1 14.2c-.3-.3-.3-.8.1-1.1 1.7-1.4 3.4-2.8 5.1-4.1.4-.3.9-.2 1.2.1.3.3.2.8-.1 1.1-1.7 1.3-3.4 2.7-5 4.1-.1.1-.3.2-.5.2-.4 0-.7-.1-.8-.3zm12.8-10c-.3-.4-.2-.9.2-1.1 1.8-1.3 3.5-2.5 5.3-3.7.4-.3.9-.2 1.1.2.3.4.2.9-.2 1.1-1.8 1.2-3.6 2.5-5.3 3.7-.1.1-.3.2-.5.2-.2-.1-.5-.2-.6-.4zM205.9 359.1c0-.4.3-.6.6-.6 1.7 0 3.4 0 5-.1.3 0 .6.3.7.6 0 .4-.3.6-.6.7-1.7.1-3.4.1-5.1.1-.4 0-.6-.3-.6-.7zm-7 .5l-5.1-.3c-.3 0-.6-.3-.6-.7 0-.4.3-.6.7-.6 1.7.1 3.4.2 5 .3.3 0 .6.3.6.7 0 .4-.3.6-.6.6zm19.6-1c0-.3.2-.7.6-.7 1.7-.1 3.4-.3 5-.5.3 0 .7.2.7.6 0 .4-.2.7-.6.7-1.7.2-3.4.3-5.1.5h-.1c-.2 0-.5-.2-.5-.6zm-32.3.1c-1.7-.2-3.4-.4-5-.6-.3-.1-.6-.4-.5-.7 0-.3.4-.6.7-.5 1.7.2 3.3.4 5 .6.3 0 .6.4.6.7-.1.3-.4.5-.8.5zm44.9-1.5c-.1-.3.2-.7.5-.7 1.7-.3 3.3-.5 5-.8.3-.1.7.2.7.5.1.3-.2.7-.5.7-1.7.3-3.3.6-5 .8h-.1c-.3 0-.6-.2-.6-.5zm-57.5-.4c-1.7-.3-3.3-.7-5-1-.3-.1-.6-.4-.5-.8.1-.3.4-.6.7-.5 1.6.4 3.3.7 4.9 1 .3.1.6.4.5.7-.1.3-.3.5-.6.5.1.1.1.1 0 .1zm69.9-1.9c-.1-.3.1-.7.5-.8 1.6-.4 3.3-.8 4.9-1.2.3-.1.7.1.8.5.1.3-.1.7-.4.8-1.6.4-3.3.8-4.9 1.2h-.1c-.4 0-.7-.2-.8-.5zm-82.3-.9c-1.6-.4-3.3-.9-4.9-1.4-.3-.1-.5-.5-.4-.8.1-.3.4-.5.8-.4 1.6.5 3.2.9 4.9 1.4.3.1.5.4.5.8-.1.3-.3.5-.6.5-.2-.1-.2-.1-.3-.1zm94.6-2.4c-.1-.3.1-.7.4-.8 1.6-.5 3.2-1 4.8-1.6.3-.1.7.1.8.4.1.3-.1.7-.4.8-1.6.6-3.2 1.1-4.8 1.6h-.2c-.3 0-.6-.1-.6-.4zm-106.7-1.3c-1.6-.6-3.2-1.1-4.8-1.8-.3-.1-.5-.5-.4-.8.1-.3.5-.5.8-.4 1.6.6 3.2 1.2 4.8 1.7.3.1.5.5.4.8-.1.3-.3.4-.6.4-.1.1-.1.1-.2.1zm118.6-2.9c-.1-.3 0-.7.4-.8 1.6-.6 3.1-1.3 4.6-1.9.3-.1.7 0 .8.3.1.3 0 .7-.3.8-1.6.7-3.1 1.3-4.7 1.9h-.2c-.2.1-.5 0-.6-.3zm-130.5-1.8c-1.6-.7-3.1-1.4-4.6-2.1-.3-.2-.4-.5-.3-.8.1-.3.5-.5.8-.3 1.5.7 3.1 1.4 4.6 2.1.3.1.5.5.3.8-.1.2-.3.4-.6.4 0 0-.1 0-.2-.1zm142.1-3.2c-.2-.3 0-.7.3-.8 1.5-.7 3-1.5 4.5-2.3.3-.2.7 0 .9.3.2.3 0 .7-.3.8-1.5.8-3 1.5-4.5 2.3-.1 0-.2.1-.3.1-.3-.1-.5-.2-.6-.4zm-153.6-2.3l-4.5-2.4c-.3-.2-.4-.6-.2-.9.2-.3.6-.4.9-.2 1.5.8 2.9 1.6 4.4 2.4.3.2.4.5.3.9-.1.2-.3.3-.6.3-.1 0-.2 0-.3-.1zm164.8-3.6c-.2-.3-.1-.7.2-.9 1.5-.8 2.9-1.7 4.3-2.6.3-.2.7-.1.9.2.2.3.1.7-.2.9-1.4.9-2.9 1.8-4.3 2.6-.1.1-.2.1-.3.1-.3 0-.5-.1-.6-.3zm-175.8-2.7c-1.4-.9-2.9-1.8-4.3-2.8-.3-.2-.4-.6-.2-.9.2-.3.6-.4.9-.2 1.4.9 2.8 1.9 4.2 2.7.3.2.4.6.2.9-.1.2-.3.3-.5.3-.1.1-.2 0-.3 0zm186.5-4c-.2-.3-.1-.7.2-.9 1.4-1 2.8-1.9 4.1-2.9.3-.2.7-.1.9.1.2.3.1.7-.1.9-1.4 1-2.8 2-4.1 2.9-.1.1-.2.1-.4.1-.3 0-.5-.1-.6-.2zm-197-3.2c-1.4-1-2.7-2-4.1-3.1-.3-.2-.3-.6-.1-.9.2-.3.6-.3.9-.1 1.3 1 2.7 2.1 4 3.1.3.2.3.6.1.9-.1.2-.3.3-.5.3-.1-.1-.2-.1-.3-.2zm207.2-4.3c-.2-.3-.2-.7.1-.9 1.3-1.1 2.6-2.1 3.9-3.2.3-.2.7-.2.9.1.2.3.2.7-.1.9-1.3 1.1-2.6 2.2-3.9 3.2-.1.1-.3.1-.4.1-.2 0-.4-.1-.5-.2zm-217.2-3.6c-1.3-1.1-2.6-2.2-3.8-3.4-.3-.2-.3-.6-.1-.9.2-.3.6-.3.9 0 1.2 1.1 2.5 2.2 3.8 3.3.3.2.3.6.1.9-.1.1-.3.2-.5.2-.1.1-.3 0-.4-.1zM321 314c-.2-.3-.2-.7 0-.9 1.2-1.1 2.5-2.3 3.7-3.5.3-.2.7-.2.9 0 .2.2.2.6 0 .9-1.2 1.2-2.4 2.4-3.7 3.5-.1.1-.3.2-.4.2-.2 0-.4 0-.5-.2zm-236.1-3.9c-1.2-1.2-2.4-2.4-3.5-3.6-.2-.3-.2-.7 0-.9.3-.2.7-.2.9 0 1.2 1.2 2.3 2.4 3.5 3.6.2.2.3.6 0 .9-.1.1-.3.2-.4.2-.2 0-.4-.1-.5-.2zm245.1-5c-.3-.2-.3-.6 0-.9 1.1-1.2 2.3-2.5 3.4-3.7.2-.3.6-.3.9-.1.3.2.3.6.1.9-1.1 1.3-2.3 2.5-3.4 3.8-.1.1-.3.2-.5.2s-.4-.1-.5-.2zm-253.8-4.3l-3.3-3.9c-.2-.3-.2-.7.1-.9.3-.2.7-.2.9.1 1.1 1.3 2.1 2.6 3.3 3.9.2.3.2.7-.1.9-.1.1-.3.2-.4.2-.2-.1-.4-.1-.5-.3zm262.1-5.2c-.3-.2-.3-.6-.1-.9 1.1-1.3 2.1-2.6 3.1-4 .2-.3.6-.3.9-.1.3.2.3.6.1.9-1 1.4-2.1 2.7-3.1 4-.1.2-.3.2-.5.2-.1 0-.3 0-.4-.1zm-270.1-4.7c-1-1.4-2-2.7-3-4.1-.2-.3-.1-.7.2-.9.3-.2.7-.1.9.2 1 1.4 2 2.7 3 4.1.2.3.2.7-.1.9-.1.1-.2.1-.4.1-.3 0-.5-.1-.6-.3zm277.7-5.5c-.3-.2-.4-.6-.2-.9 1-1.4 1.9-2.8 2.8-4.2.2-.3.6-.4.9-.2.3.2.4.6.2.9-.9 1.4-1.9 2.8-2.8 4.2-.1.2-.3.3-.5.3s-.3 0-.4-.1zM61 280.5c-.9-1.4-1.8-2.9-2.7-4.3-.2-.3-.1-.7.2-.9.3-.2.7-.1.9.2.9 1.4 1.7 2.9 2.6 4.3.2.3.1.7-.2.9-.1.1-.2.1-.3.1-.2 0-.4-.1-.5-.3zm291.7-5.8c-.3-.2-.4-.6-.2-.9.9-1.5 1.7-2.9 2.5-4.4.2-.3.5-.4.9-.3.3.2.4.5.3.9-.8 1.5-1.6 3-2.5 4.4-.1.2-.3.3-.5.3-.3.1-.4.1-.5 0zm-298.1-5.1c-.8-1.5-1.6-3-2.3-4.5-.2-.3 0-.7.3-.8.3-.2.7 0 .8.3.8 1.5 1.5 3 2.3 4.5.2.3.1.7-.3.9-.1.1-.2.1-.3.1-.2-.2-.4-.3-.5-.5zm304.1-6c-.3-.2-.4-.5-.3-.8.7-1.5 1.5-3 2.1-4.6.1-.3.5-.5.8-.3.3.1.5.5.3.8-.7 1.6-1.4 3.1-2.2 4.6-.1.2-.3.4-.6.4.1-.1 0-.1-.1-.1zM49 258.2c-.7-1.5-1.3-3.1-2-4.7-.1-.3 0-.7.3-.8.3-.1.7 0 .8.3.6 1.5 1.3 3.1 2 4.6.1.3 0 .7-.3.8-.1 0-.2.1-.3.1-.2.1-.4-.1-.5-.3zm314.9-6.2c-.3-.1-.5-.5-.4-.8.6-1.6 1.2-3.1 1.8-4.7.1-.3.5-.5.8-.4.3.1.5.5.4.8l-1.8 4.8c-.1.2-.3.4-.6.4-.1-.1-.2-.1-.2-.1zm-319.6-5.6c-.6-1.6-1.1-3.2-1.6-4.8-.1-.3.1-.7.4-.8.3-.1.7.1.8.4.5 1.6 1.1 3.2 1.6 4.8.1.3-.1.7-.4.8h-.2c-.3 0-.6-.1-.6-.4zm323.8-6.4c-.3-.1-.5-.5-.4-.8.5-1.6 1-3.2 1.4-4.8.1-.3.4-.5.8-.4.3.1.5.4.4.8-.5 1.6-.9 3.3-1.4 4.9-.1.3-.3.4-.6.4 0-.1-.1-.1-.2-.1zm-327.7-5.7c-.5-1.6-.9-3.3-1.3-4.9-.1-.3.1-.7.5-.8.3-.1.7.1.8.5.4 1.6.8 3.3 1.3 4.9.1.3-.1.7-.4.8h-.2c-.4 0-.6-.2-.7-.5zm331.1-6.5c-.3-.1-.6-.4-.5-.8.4-1.6.7-3.3 1.1-4.9.1-.3.4-.6.7-.5.3.1.6.4.5.7-.3 1.7-.7 3.3-1.1 5-.1.3-.3.5-.6.5h-.1zm-334-5.9c-.3-1.7-.6-3.3-.9-5-.1-.3.2-.7.5-.7.3-.1.7.2.7.5.3 1.7.6 3.3.9 5 .1.3-.2.7-.5.7h-.1c-.3 0-.6-.2-.6-.5zm336.4-6.5c-.3-.1-.6-.4-.5-.7.3-1.7.5-3.3.7-5 0-.3.4-.6.7-.5.3 0 .6.4.5.7-.2 1.7-.4 3.4-.7 5 0 .3-.3.5-.6.5h-.1zm-338.4-6c-.2-1.7-.4-3.4-.5-5.1 0-.4.2-.7.6-.7.3 0 .7.2.7.6.2 1.7.3 3.4.5 5 0 .3-.2.7-.6.7h-.1c-.3 0-.6-.2-.6-.5zm340-6.6c-.3 0-.6-.3-.6-.7.1-1.7.2-3.3.3-5 0-.4.3-.6.7-.6.4 0 .6.3.6.7l-.3 5.1c-.1.3-.4.5-.7.5zm-341.1-6.1c-.1-1.7-.1-3.4-.2-5.1 0-.4.3-.6.6-.6s.6.3.6.6c0 1.7.1 3.4.2 5 0 .4-.3.6-.6.7-.3 0-.6-.3-.6-.6zm341.6-6.5c-.4 0-.6-.3-.6-.6v-1c0-1.4 0-2.7-.1-4.1 0-.4.3-.6.6-.6s.6.3.7.6v5.1c.1.3-.2.6-.6.6zm-341.8-1.7c0-1.7 0-3.4.1-5.1 0-.4.3-.6.7-.6.4 0 .6.3.6.7-.1 1.7-.1 3.4-.1 5 0 .3-.3.6-.6.6-.4.1-.7-.2-.7-.6zM375 176.9c-.1-1.7-.3-3.4-.4-5 0-.3.2-.7.6-.7.4 0 .7.2.7.6.2 1.7.3 3.4.4 5.1 0 .3-.2.6-.6.7-.4-.1-.7-.3-.7-.7zm-339.7-.4c-.4 0-.6-.3-.6-.7.1-1.7.3-3.4.4-5.1 0-.4.3-.6.7-.6.3 0 .6.3.6.7-.2 1.7-.3 3.3-.4 5-.1.5-.3.7-.7.7zm338.4-12.1c-.2-1.7-.5-3.3-.8-5-.1-.3.2-.7.5-.7.3-.1.7.2.7.5.3 1.7.6 3.3.8 5 0 .3-.2.7-.5.7h-.1c-.3 0-.5-.2-.6-.5zm-337.1-.5c-.3-.1-.6-.4-.5-.7.2-1.7.5-3.4.8-5 .1-.3.4-.6.7-.5.3.1.6.4.5.7-.3 1.6-.6 3.3-.8 5 0 .3-.3.5-.7.5.1 0 .1 0 0 0zM371.5 152c-.4-1.6-.7-3.3-1.2-4.9-.1-.3.1-.7.5-.8.3-.1.7.1.8.5.4 1.6.8 3.3 1.2 4.9.1.3-.1.7-.5.8h-.1c-.4 0-.7-.2-.7-.5zm-332.6-.5c-.3-.1-.6-.4-.5-.8.4-1.7.8-3.3 1.2-4.9.1-.3.4-.5.8-.5.3.1.5.4.5.8-.4 1.6-.8 3.3-1.2 4.9-.1.3-.3.5-.6.5h-.2zm329.4-11.7l-1.5-4.8c-.1-.3.1-.7.4-.8.3-.1.7.1.8.4.5 1.6 1 3.2 1.5 4.9.1.3-.1.7-.4.8h-.2c-.3-.1-.5-.3-.6-.5zm-326.2-.6c-.3-.1-.5-.5-.4-.8.5-1.6 1-3.2 1.6-4.9.1-.3.5-.5.8-.4.3.1.5.5.4.8-.5 1.6-1.1 3.2-1.5 4.8-.1.3-.3.4-.6.4-.2.1-.2.1-.3.1zm322.1-11.4c-.6-1.6-1.2-3.1-1.9-4.7-.1-.3 0-.7.3-.8.3-.1.7 0 .8.3.7 1.6 1.3 3.1 1.9 4.7.1.3 0 .7-.4.8h-.2c-.1.1-.4 0-.5-.3zm-318-.6c-.3-.1-.5-.5-.4-.8.6-1.6 1.3-3.2 1.9-4.7.1-.3.5-.5.8-.3.3.1.5.5.3.8-.7 1.5-1.3 3.1-1.9 4.7-.1.2-.3.4-.6.4.1-.1 0-.1-.1-.1zm313.1-11c-.7-1.5-1.4-3-2.2-4.5-.2-.3 0-.7.3-.8.3-.2.7 0 .9.3.8 1.5 1.5 3 2.2 4.6.2.3 0 .7-.3.8-.1 0-.2.1-.3.1-.3-.1-.5-.2-.6-.5zm-308.1-.7c-.3-.2-.4-.5-.3-.8.7-1.5 1.5-3.1 2.3-4.6.2-.3.5-.4.9-.3.3.2.4.5.3.8-.8 1.5-1.5 3-2.2 4.5-.1.2-.3.4-.6.4-.2.1-.3.1-.4 0zm302.3-10.4c-.8-1.5-1.7-2.9-2.5-4.4-.2-.3-.1-.7.2-.9.3-.2.7-.1.9.2.9 1.4 1.7 2.9 2.6 4.4.2.3.1.7-.2.9-.1.1-.2.1-.3.1-.3 0-.6-.1-.7-.3zm-296.4-.8c-.3-.2-.4-.6-.2-.9.8-1.5 1.7-2.9 2.6-4.4.2-.3.6-.4.9-.2.3.2.4.6.2.9-.9 1.4-1.7 2.9-2.6 4.3-.1.2-.3.3-.5.3-.2.1-.3 0-.4 0zm289.8-10c-.9-1.4-1.9-2.8-2.9-4.2-.2-.3-.1-.7.2-.9.3-.2.7-.1.9.2 1 1.4 1.9 2.8 2.9 4.2.2.3.1.7-.2.9-.1.1-.2.1-.4.1-.1 0-.3-.1-.5-.3zm-283.1-.8c-.3-.2-.4-.6-.2-.9 1-1.4 1.9-2.8 2.9-4.2.2-.3.6-.3.9-.1.3.2.3.6.1.9-1 1.4-2 2.7-2.9 4.1-.1.2-.3.3-.5.3-.1 0-.2 0-.3-.1zm275.8-9.4c-1-1.3-2.1-2.6-3.2-3.9-.2-.3-.2-.7.1-.9.3-.2.7-.2.9.1 1.1 1.3 2.1 2.6 3.2 4 .2.3.2.7-.1.9-.1.1-.3.1-.4.1-.2-.1-.4-.1-.5-.3zm-268.4-.8c-.3-.2-.3-.6-.1-.9 1.1-1.3 2.1-2.6 3.2-3.9.2-.3.6-.3.9-.1.3.2.3.6.1.9-1.1 1.3-2.1 2.6-3.2 3.9-.1.2-.3.2-.5.2-.1 0-.3 0-.4-.1zm260.2-8.8c-1.1-1.2-2.3-2.5-3.4-3.7-.2-.3-.2-.7 0-.9.3-.2.7-.2.9 0 1.2 1.2 2.3 2.5 3.5 3.7.2.3.2.7 0 .9-.1.1-.3.2-.4.2-.3 0-.4-.1-.6-.2zm-252-.9c-.3-.2-.3-.6 0-.9 1.2-1.2 2.3-2.5 3.5-3.7.2-.3.6-.3.9 0 .3.2.3.6 0 .9-1.2 1.2-2.3 2.4-3.5 3.7-.1.1-.3.2-.5.2-.1 0-.3-.1-.4-.2zm243.2-8.2c-1.2-1.2-2.5-2.3-3.7-3.4-.3-.2-.3-.6-.1-.9.2-.3.6-.3.9-.1 1.3 1.1 2.5 2.3 3.7 3.5.3.2.3.6 0 .9-.1.1-.3.2-.5.2 0 0-.1-.1-.3-.2zm-234.3-.8c-.2-.3-.2-.7 0-.9 1.2-1.2 2.5-2.3 3.8-3.4.3-.2.7-.2.9.1.2.3.2.7-.1.9-1.3 1.1-2.5 2.2-3.7 3.4-.1.1-.3.2-.4.2-.2-.1-.4-.2-.5-.3zm224.9-7.5c-1.3-1.1-2.6-2.1-4-3.1-.3-.2-.3-.6-.1-.9.2-.3.6-.3.9-.1 1.3 1 2.7 2.1 4 3.2.3.2.3.6.1.9-.1.1-.3.2-.5.2-.2-.1-.3-.1-.4-.2zm-215.4-.9c-.2-.3-.2-.7.1-.9 1.3-1.1 2.7-2.1 4-3.1.3-.2.7-.2.9.1.2.3.2.7-.1.9-1.3 1-2.7 2.1-4 3.1-.1.1-.3.1-.4.1-.2.1-.4 0-.5-.2zm205.3-6.8c-1.4-1-2.8-1.9-4.2-2.8-.3-.2-.4-.6-.2-.9.2-.3.6-.4.9-.2 1.4.9 2.8 1.9 4.2 2.9.3.2.4.6.2.9-.1.2-.3.3-.5.3-.1-.1-.3-.1-.4-.2zm-195.2-.8c-.2-.3-.1-.7.2-.9 1.4-1 2.8-1.9 4.2-2.8.3-.2.7-.1.9.2.2.3.1.7-.2.9-1.4.9-2.8 1.9-4.2 2.8-.1.1-.2.1-.4.1s-.4-.1-.5-.3zm184.6-6c-1.4-.9-2.9-1.7-4.4-2.5-.3-.2-.4-.6-.2-.9.2-.3.6-.4.9-.2 1.5.8 3 1.7 4.4 2.5.3.2.4.6.2.9-.1.2-.3.3-.5.3-.1-.1-.3-.1-.4-.1zm-174-.9c-.2-.3-.1-.7.2-.9 1.5-.9 2.9-1.7 4.4-2.5.3-.2.7-.1.9.2.2.3.1.7-.2.9-1.5.8-2.9 1.6-4.4 2.5-.1.1-.2.1-.3.1-.3.1-.5-.1-.6-.3zm163-5.2c-1.5-.8-3-1.5-4.6-2.2-.3-.1-.5-.5-.3-.8.2-.3.5-.5.8-.3 1.5.7 3.1 1.5 4.6 2.2.3.2.4.5.3.8-.1.2-.3.4-.6.4-.1-.1-.1-.1-.2-.1zm-151.9-.8c-.2-.3 0-.7.3-.8 1.5-.7 3-1.5 4.6-2.2.3-.1.7 0 .8.3.1.3 0 .7-.3.8-1.5.7-3 1.4-4.5 2.2-.1 0-.2.1-.3.1-.3-.1-.5-.2-.6-.4zM270 31.2c-1.6-.6-3.1-1.3-4.7-1.9-.3-.1-.5-.5-.4-.8.1-.3.5-.5.8-.4 1.6.6 3.2 1.2 4.7 1.9.3.1.5.5.3.8-.1.2-.3.4-.6.4 0 .1-.1.1-.1 0zm-128.9-.7c-.1-.3 0-.7.4-.8 1.6-.6 3.1-1.2 4.7-1.8.3-.1.7 0 .8.4.1.3 0 .7-.4.8-1.6.6-3.2 1.2-4.7 1.8h-.2c-.3 0-.5-.2-.6-.4zm117-3.6l-4.8-1.5c-.3-.1-.5-.4-.4-.8.1-.3.5-.5.8-.4 1.6.5 3.3 1 4.9 1.5.3.1.5.5.4.8-.1.3-.3.4-.6.4h-.3zM153 26.2c-.1-.3.1-.7.4-.8 1.6-.5 3.2-1 4.9-1.5.3-.1.7.1.8.4.1.3-.1.7-.4.8l-4.8 1.5h-.2c-.4 0-.6-.2-.7-.4zm93-2.8c-1.6-.4-3.3-.8-4.9-1.1-.3-.1-.6-.4-.5-.7.1-.3.4-.6.8-.5 1.7.4 3.3.7 5 1.1.3.1.5.4.5.8-.1.3-.3.5-.6.5-.2-.1-.3-.1-.3-.1zm-80.8-.7c-.1-.3.1-.7.5-.8 1.6-.4 3.3-.8 5-1.1.3-.1.7.2.7.5.1.3-.2.7-.5.7-1.6.3-3.3.7-4.9 1.1h-.2c-.3.1-.5-.1-.6-.4zm68.4-1.8c-1.6-.3-3.3-.5-5-.8-.4 0-.6-.4-.5-.7 0-.3.4-.6.7-.5 1.7.2 3.4.5 5 .8.3.1.6.4.5.7-.1.3-.3.5-.6.5h-.1zm-56-.7c-.1-.3.2-.7.5-.7 1.7-.3 3.3-.5 5-.7.3-.1.7.2.7.5s-.2.7-.5.7c-1.7.2-3.3.5-5 .7h-.1c-.3 0-.6-.2-.6-.5zm43.5-.9c-1.7-.2-3.3-.3-5-.4-.4 0-.6-.3-.6-.7 0-.3.3-.6.7-.6 1.7.1 3.4.2 5.1.4.3 0 .6.3.6.7-.2.3-.4.6-.8.6zm-30.9-.7c0-.3.2-.7.6-.7 1.7-.1 3.4-.3 5.1-.4.3 0 .6.3.7.6 0 .4-.3.6-.6.7-1.7.1-3.4.2-5 .4-.5 0-.8-.3-.8-.6zm18.3 0h-5c-.4 0-.6-.3-.6-.6 0-.4.3-.6.6-.6h5.1c.3 0 .6.3.6.6-.1.3-.4.6-.7.6z"/><path d="M203.5-.2C99.6-.2 15.4 84 15.4 187.9 15.4 291.8 99.6 376 203.5 376c103.9 0 188.1-84.2 188.1-188.1C391.6 84 307.4-.2 203.5-.2zm2.4 351.5c-86.8 0-157.2-70.4-157.2-157.2 0-86.8 70.4-157.2 157.2-157.2s157.2 70.4 157.2 157.2c.1 86.8-70.3 157.2-157.2 157.2z" opacity=".55" fill="#fff"/><path d="M3.7 180.3c0-84 48.2-152 121.7-181.3l3.8 1.5C56.5 29.5 6 97.3 6 180.3c0 54.4 22 103.6 57.7 139.3 35.6 35.6 84.9 57.7 139.3 57.7 54.4 0 103.6-22 139.3-57.7C377.9 284 400 234.7 400 180.3 400 98.4 350 29.7 278.8.1l5-1.1c72 30 118.5 98.4 118.5 181.3 0 110.1-89.2 199.3-199.3 199.3-110.1 0-199.3-89.2-199.3-199.3zM278.7.1z" opacity=".45" fill="#d8610f"/><path opacity=".48" fill="#fff" d="M-594 126.1l800.6 56-800.6 50z"/><g opacity=".73"><path class="st12" d="M-436.4 352c-5.5-.4-7.9-6.9-9.8-12.8-1.8-6-2.6-11.9-2.6-11.9l1.5-.2 1.4.6-1.4-.6-1.5.2-.1-.4.2-.4c4.6-10.5 6.9-16.5 10-20.6 3.2-4.1 7.3-5.8 14.3-7 6.9-1.2 14.8-3.4 21.2-5.5 6.3-2.1 11.6-4.5 12.1-5.2.6-.6 1.4-1.1 2.3-1.1 2.5.2 3.5 2.4 3.5 4.4 0 1.6-.8 3.4-2.6 4.4-.1.1-.3.1-.4.2 1-.2 1.7-.4 1.8-.5.2-.1.5-.2.8-.2.6 0 1.4.4 1.6.9.3.5.3.9.3 1.3-.1 1.5-.8 3.6-2.5 5.5h.1c1.2 0 3 .7 3.1 2.8-.1 1.9-1.4 3.2-4.1 5-.2.1-.4.3-.6.4.3.1.7.4 1.2.9.1.3.2.6.2.8-.1 1.2-.6 1.4-1 1.9-.4.4-1 .8-1.6 1.3-.8.5-1.7 1.1-2.7 1.7h.1c.4.1 1.1.8 1.1 1.6-.2 1.3-.7 1.4-1.1 2-.8.7-1.8 1.3-2.9 1.9.5.2 1.2.8 1.2 1.8 0 .6-.2 1-.4 1.3-.9 1.1-2.4 2.3-4.1 3.3.5.3 1 1 1 1.7 0 .3 0 .5-.1.7-1 2.2-3.2 2.9-5.4 3.9h-.1c.4.4.7.9.8 1.8 0 .3-.1.6-.2.9-1.5 2.8-5.3 4-8.6 4.2l-.3.2c-.3.2-.7.5-1.2.9-1 .8-2.4 1.9-4.4 3.1-4 2.6-10.1 4.8-20.1 4.8zm-6.9-13.6c1.6 5.8 4.7 11 6.9 10.6 9.5 0 15-2.1 18.5-4.1 3.7-2 4.6-4.2 7.5-4.5 1.7.1 4.4-1.1 5.4-1.9-.1 0-.3-.1-.4-.1-.8-.2-1.7-.3-1.7-.3l-.3-3s1.4-.5 3.1-1.1c.8-.3 1.7-.7 2.5-1.1-1.3.2-2.7.6-2.7.6l-1-2.8s2-.9 4.2-2.1c1.3-.7 2.6-1.5 3.6-2.2-2.5.2-6.2 1-6.2 1l-.8-2.9s2.2-.7 4.7-1.7c.5-.2 1-.4 1.6-.6-1.2.2-2.6.5-4 .7-.4.1-.8.1-1.1.1l-.2-3c.4 0 .8-.1 1.2-.2 2.3-.6 7.3-3.1 10.4-4.9-3.2.5-7.5 1.5-10.1 2.1-1.1.3-1.9.5-2.3.5h-.1l-.7-2.9s.6-.1 1.6-.4c3.2-.8 10.9-2.9 15.1-5.6 1.2-.8 1.9-1.4 2.3-1.9l.3-.3c-1.7.5-19.1 4.5-19.2 4.5l-.8-2.9s2.8-.8 11.3-2.9c4.6-1 7-4.2 7.8-6.1-5.2 1.3-18.7 3.7-18.8 3.7l-.7-2.9s13.7-4.6 17.1-6.5c.8-.5 1-1.1 1.1-1.7 0-.6-.3-1.2-.5-1.3l-.1.1c-1.8 1.8-6.7 3.7-13.3 5.9-6.5 2.2-14.5 4.3-21.6 5.6-7 1.3-9.8 2.5-12.5 5.9-2.6 3.4-5 9.3-9.4 19.6.1 1.3.9 6.2 2.3 11z"/><path class="st12" d="M-484.9 344l-.3-.2c-3.3-.2-7.1-1.4-8.6-4.2-.1-.3-.2-.6-.2-.9.1-.8.4-1.4.8-1.8h-.1c-2.1-1.1-4.4-1.7-5.4-3.9-.1-.2-.1-.5-.1-.8 0-.7.5-1.4 1-1.7-1.7-1-3.2-2.2-4.1-3.3-.2-.3-.5-.8-.5-1.3 0-1 .7-1.6 1.3-1.8-1.2-.6-2.2-1.3-3-1.9-.5-.5-1-.7-1.1-2-.1-.8.7-1.5 1.1-1.6h.1c-1.8-1.1-3.4-2.1-4.4-3-.4-.5-.9-.7-1-1.9 0-.4.1-.7.2-.8.5-.6.8-.8 1.1-.9-.2-.1-.4-.2-.6-.4-2.7-1.8-4-3.1-4.1-5 .1-2.1 1.9-2.8 3.1-2.8h.1c-1.7-1.9-2.5-4-2.5-5.5 0-.4 0-.8.3-1.3s1-1 1.7-.9c.3 0 .6.1.8.2.2.1.9.3 1.9.5-.2-.1-.3-.2-.4-.2-1.8-1-2.7-2.8-2.6-4.4.1-2 1-4.2 3.5-4.4.9 0 1.7.4 2.3 1.1.5.7 5.8 3.1 12.1 5.2 6.4 2.1 14.3 4.3 21.2 5.5 7 1.2 11.2 2.8 14.3 7 3.1 4.1 5.4 10.1 10 20.6l-1.4.6 1.4-.6.2.4-.1.4s-.8 5.9-2.6 11.9c-1.9 5.9-4.3 12.4-9.8 12.8h-.5c-16.9-.2-22.8-7.4-25.1-8.7zm7.1 1.3c3.5 2 9 4.1 18.5 4.1 2.1.4 5.3-4.8 6.9-10.6 1.5-4.8 2.3-9.6 2.5-11.1-4.5-10.3-6.8-16.2-9.4-19.6-2.6-3.4-5.5-4.6-12.5-5.9-7.1-1.3-15.1-3.4-21.6-5.6-6.6-2.3-11.5-4.2-13.3-5.9l-.1-.1-.2.2c-.2.3-.3.7-.3 1.1 0 .7.2 1.3 1.1 1.7 3.4 1.9 17.1 6.5 17.2 6.5l-.7 2.9c-.1 0-13.6-2.5-18.8-3.7.8 1.8 3.2 5.1 7.8 6.1 8.6 2.1 11.3 2.9 11.3 2.9l-.8 2.9s-17.4-4-19.2-4.5c.1.1.1.2.2.3.4.5 1.1 1.1 2.3 1.9 3.8 2.5 10.6 4.4 14.2 5.4 1.2.3 2.1.5 2.4.6l-.7 2.9h-.2c-.3-.1-.8-.2-1.6-.4-1.2-.3-3-.7-4.9-1.1-2-.4-4.1-.9-5.9-1.2.9.6 2 1.2 3.1 1.7 2.8 1.5 6.1 2.9 7.7 3.2.3 0 .6.1.9.1l-.2 3h-.2c-1.7-.2-3.4-.5-4.9-.8.5.2 1 .4 1.6.6 2.5 1 4.7 1.7 4.7 1.7l-.8 2.9s-1.2-.3-2.7-.5c-1.1-.2-2.4-.4-3.4-.5 1 .7 2.3 1.6 3.6 2.2 2.2 1.2 4.2 2.1 4.2 2.1l-1 2.8s-.8-.2-1.8-.4c-.3-.1-.6-.1-.9-.2.5.3 1.1.5 1.7.8 2 .8 3.9 1.4 3.9 1.4l-.3 3s-.5 0-1.1.2c-.3.1-.7.2-1 .3 1 .8 3.6 2 5.4 1.9 2.7.6 3.7 2.7 7.3 4.7z"/></g><g opacity=".44"><path class="st14" d="M683.5 46.3c.5-1.1 1.3-1.5 1.3-1.5l-.5-1.2-23.2 9.3c.4-1.7-.1-4.1-1.7-6.3-2.2-3.1-5.6-4.4-7.4-3.1-1.9 1.4-1.7 5 .6 8 2.2 3 5.3 4.3 7.3 3.2l19.7-7.9s.1.5-.2 2.5c-.8 6.2-3 9.4-12.9 11.9-.3.1-.2.3.1.2 16.9-1.6 16.4-14 16.9-15.1zM708.1 103.2L706.3 69l-35.9 13.6 1.7 31.7c-1.9-1.2-5-1.5-8.3-.5-4.6 1.4-7.6 4.8-6.8 7.7.9 2.8 5.3 4 9.9 2.6 4.5-1.4 7.5-4.6 6.8-7.4l-1.5-28.5L705 75.9l1.3 24.9c-1.9-1.2-5-1.5-8.3-.5-4.6 1.4-7.6 4.8-6.8 7.7.9 2.9 5.3 4 9.9 2.6 4.6-1.4 7.6-4.7 7-7.4zM386.4 27c.5-1.1 1.3-1.5 1.3-1.5l-.5-1.2-23.2 9.3c.4-1.7-.1-4.1-1.7-6.3-2.2-3.1-5.6-4.4-7.4-3.1-1.9 1.4-1.7 5 .6 8 2.2 3 5.3 4.3 7.3 3.2l19.7-7.9s.1.5-.2 2.5c-.8 6.2-3 9.4-12.9 11.9-.3.1-.2.3.1.2 16.9-1.6 16.4-14 16.9-15.1zM454.4 65.2c-.5-12.2-10.4-12.9-11.2-13.4-.9-.5-1.1-1.2-1.1-1.2v-.1l-1 .2 8.5 33.7c-1.3-.5-3.4-.3-5.3.7-2.7 1.5-4.2 4-3.3 5.7.9 1.7 3.9 1.9 6.6.4 2.7-1.4 4.1-3.8 3.4-5.5L446.5 68s.5 0 2 .4c4.9 1.3 7.3 3.4 8.2 11.7 0 .2.2.2.2 0 .1-3.3-.4-5.9-1.2-7.9.1-2.8-.5-5.2-1.3-7zm-11.2-10.1s.4 0 2.1.4c4.4 1.1 7.2 2.7 8.5 8.4-3-5-8.4-5.5-9-5.8-.9-.5-1.1-1.2-1.1-1.2l-.5-1.8zm3.2 9.7c-.9-.5-1.1-1.2-1.1-1.2l-.6-2.2s.5 0 2.1.4c4.5 1.2 7.2 2.9 8.4 9.4-2.8-5.4-8.2-6.1-8.8-6.4z"/></g><g><path class="st1" d="M-109.3 72.1c-.1-.9.2-1.4.2-1.4l-.7-.5-10.6 14.5c-.4-1.2-1.7-2.5-3.4-3.2-2.5-1-5.1-.6-5.7 1-.6 1.6.9 3.7 3.4 4.7 2.4 1 4.9.6 5.7-.8l9-12.3s.3.3.9 1.6c1.9 4.1 1.8 6.9-3.4 12.2-.1.1 0 .2.1.1 9.7-7.6 4.7-15 4.5-15.9zM-72.7 97.5l-14.1-20.2-16.7 22 13.1 18.7c-1.6 0-3.7 1-5.3 2.8-2.3 2.6-2.8 5.9-1.2 7.3 1.6 1.4 4.8.4 7.1-2.2 2.2-2.5 2.8-5.7 1.3-7.1l-11.8-16.8 15.4-20 10.3 14.7c-1.6 0-3.7 1-5.3 2.8-2.3 2.6-2.8 5.9-1.2 7.3 1.6 1.4 4.8.4 7.1-2.2 2.2-2.5 2.8-5.6 1.3-7.1z"/></g><path class="st15" d="M-438.9 62.3c.5-1.1 1.3-1.5 1.3-1.5l-.5-1.2-23.2 9.3c.4-1.7-.1-4.1-1.7-6.3-2.2-3.1-5.6-4.4-7.4-3.1-1.9 1.4-1.7 5 .6 8 2.2 3 5.3 4.3 7.3 3.2l19.7-7.9s.1.5-.2 2.5c-.8 6.2-3 9.4-12.9 11.9-.3.1-.2.3.1.2 16.9-1.6 16.4-14 16.9-15.1zM-328.5 108.1c-.5-12.2-10.4-12.9-11.2-13.4-.9-.5-1.1-1.2-1.1-1.2v-.1l-1 .2 8.5 33.7c-1.3-.5-3.4-.3-5.3.7-2.7 1.5-4.2 4-3.3 5.7.9 1.7 3.9 1.9 6.6.4 2.7-1.4 4.1-3.8 3.4-5.5l-4.5-17.7s.5 0 2 .4c4.9 1.3 7.3 3.4 8.2 11.7 0 .2.2.2.2 0 .1-3.3-.4-5.9-1.2-7.9.1-2.9-.5-5.2-1.3-7zM-339.7 98s.4 0 2.1.4c4.4 1.1 7.2 2.7 8.5 8.4-3-5-8.4-5.5-9-5.8-.9-.5-1.1-1.2-1.1-1.2l-.5-1.8zm3.2 9.7c-.9-.5-1.1-1.2-1.1-1.2l-.6-2.2s.5 0 2.1.4c4.5 1.2 7.2 2.9 8.4 9.4-2.8-5.5-8.2-6.1-8.8-6.4z"/><path opacity=".64" fill="#fff" d="M680.9 204.1L654.4 262l15.6 1.2-18.2 33.8 44.7-49.4-18.5-4.7 26.7-44.2z"/><path class="st1" d="M-228.8 184.7l17.1-38.5h-17.7l25.8-69.8.2-.5 29.7-9.1-27.2 53.7 21.9 3.8-47.9 61.6-1.9-1.2zm2.6-40.8h17.9l-14.8 33.3 40-51.5-21.2-3.7 26.2-51.7-23.7 7.2-24.4 66.4zM501.3 82.2l8.8-19.8H501l13.3-35.9.1-.3 15.3-4.7-14 27.6L527 51l-24.7 31.7-1-.5zm1.3-21h9.2l-7.6 17.1 20.6-26.5-10.9-1.8 13.5-26.6-12.2 3.7-12.6 34.1z"/><g><linearGradient id="SVGID_1_" gradientUnits="userSpaceOnUse" x1="-190.633" y1="481.1" x2="96.173" y2="205.631"><stop offset=".311" stop-color="#fff"/><stop offset=".402" stop-color="#fbfbfb"/><stop offset=".496" stop-color="#eee"/><stop offset=".592" stop-color="#dadada"/><stop offset=".689" stop-color="#bdbdbd"/><stop offset=".787" stop-color="#979797"/><stop offset=".884" stop-color="#6a6a6a"/><stop offset=".902" stop-color="#616161"/></linearGradient><path opacity=".69" fill="url(#SVGID_1_)" d="M35.6 107.3L-390.7 453h435l111.5-84.4-53.3-121.2z"/><linearGradient id="SVGID_2_" gradientUnits="userSpaceOnUse" x1="267.043" y1="457.556" x2="536.533" y2="198.719"><stop offset=".311" stop-color="#fff"/><stop offset=".402" stop-color="#fbfbfb"/><stop offset=".496" stop-color="#eee"/><stop offset=".592" stop-color="#dadada"/><stop offset=".689" stop-color="#bdbdbd"/><stop offset=".787" stop-color="#979797"/><stop offset=".884" stop-color="#6a6a6a"/><stop offset=".902" stop-color="#616161"/></linearGradient><path opacity=".69" fill="url(#SVGID_2_)" d="M477 103.7L101.9 455l337.6-2 97.2-114.8L504 157.3z"/><linearGradient id="SVGID_3_" gradientUnits="userSpaceOnUse" x1="-32.649" y1="462.253" x2="278.264" y2="163.629"><stop offset=".311" stop-color="#fff"/><stop offset=".402" stop-color="#fbfbfb"/><stop offset=".496" stop-color="#eee"/><stop offset=".592" stop-color="#dadada"/><stop offset=".689" stop-color="#bdbdbd"/><stop offset=".787" stop-color="#979797"/><stop offset=".884" stop-color="#6a6a6a"/><stop offset=".902" stop-color="#616161"/></linearGradient><path opacity=".69" fill="url(#SVGID_3_)" d="M259.4 274.3L205.5 49.6l-434 404.1 374.2.8 103.6-66.4z"/><path class="st20" d="M49.2 151.5c-2.5 5.4-.1 36.9-.1 36.9l-25.4 12.2s12.5 15.6 14.7 15c2.4-.7 24.9-17.4 24.9-17.4l5.8-40.8-19.9-5.9z"/><path d="M37.2 365c4.2-1.1 6-8.9 7.4-14.5 0 0 12.3-2.7 13.6 2.9 1 4.2 3 11.7 2.1 15.1h.2l-2.6 6.2-7.9.3-1.1-2.4c-6.3 1.9-13.1 4.2-13.1 4.2s-10.8-.5-11.8-7.7c-.7-5.8 4.3-1.7 13.2-4.1z"/><path d="M83 211.4l10.4-.6-.2-.9 29.8-3.8c3.6 7.3 6.8 16.7 9.5 39.5 1.2 10.1 6.7 40.2 18.5 56.5 15.4 21.4 20 61.1 20 61.1l-21.3-.3s-26.2-47.8-28.4-52.6c-4.4-9.8-30-48.1-30-48.1s-24.5 28-29.7 33.8c-.9 1 2.2 9.5 1.8 19.3.4 23.9-3.4 44.4-3.4 44.4l-21.1.6s-2.2-41-4.2-72.8c-.9-12.8 48.3-76.1 48.3-76.1z"/><path class="st21" d="M33.9 287.4c-.8-12.7 48.4-76.1 48.4-76.1l7.1-.4c-13.2 20.9-47 68.6-48.3 76.8-3 18.2 4.5 54.8 5.8 72.6l-9.4.2c0-.1-1.6-41.3-3.6-73.1z"/><path d="M135.2 374.4c1.5-2.6 13.8-2.5 14.4-12.7.4-7-4.4-15.2-4.4-15.2l14 1.8c.3 1 .7 1.8 1 2.7l2.1-2c3.7 2.3 8 16 8 19.5s-.9 7.1-.9 7.1h-.1l-.4 2.7-6-.3-2-1.5c-4.2 2.4-10.3 4.8-14.4 5.1-7.6.8-13.2-3.8-11.3-7.2z"/><path class="st22" d="M41 133.7l6.7 28 20-24.6-30.5-17.4z"/><path class="st23" d="M43.1 205.5c-2-.7-3-4.6-5.4-4.1-.7.1-1.4-.5-5-1.1-.8-.1-7.4-2.5-7-1.5.3 1-.1 4.9.6 4.7.7-.3 1.4 2.8 2.5 2.7.8-.1-2.7 3.6-.1 6.4.5.5 4.3.1 4.6.1 3.6-.1 15.5-6 15.5-6l-5.7-1.2z"/><path class="st24" d="M85.6 137.4C73.8 134.7 69.5 120 69.5 120l-15.6 9.5 15.8 42.1c6.1-1.5 20-33.3 15.9-34.2z"/><path class="st20" d="M68 152.9c-5.4-3.4-7.3-10.7-7.3-10.7s-5.9 1.3-11.2 9.1c-1.9 2.8.9 8.3 5.5 16.2 2.3 4 5.7 10.1 8.5 14.5s13.3 31.3 16.4 39.7c1.8 4.8 7-1.2 23.3-7.2-6.9-17.7-20.6-49-25.3-58.2-.3-.6-4.1.3-9.9-3.4z"/><path class="st24" d="M65.8 111.9c-4.8-7.6-10.3-13.1-21.3-6.4-13.7 8.5-7.3 16.1-1.8 25.6 5.6 9.5 17.5 16.1 24.6 11.9 5.4-3.2 6.3-11.7 4-19.7 1-1.7.9-4.3-.4-6.7-1.6-3.2-3-5.7-5.1-4.7z"/><path class="st20" d="M80 130s1.2-3.6 13.3.2c6.7 2.1 15.3 5.5 17.4 9.6 2.1 4.1 4.5 26.9 5.4 32 .9 5.2 4.7 25.7 8.6 34 2.2 4.6-26 12.6-35 16.1-6.8-17.7-18-64.8-16.6-65.6C85 149.7 80 130 80 130z"/><path class="st21" d="M-30.1 170.9c-.6-.2-1.1-.7-1.2-.8-.1-.8.1-1.3.2-1.6.1-.3 1-1.2 2.3-.8 0 0 .4.2.4.3.3.2.1 1.7.1 1.7l-1.2 1.3-.6-.1z"/><path class="st25" d="M-30.4 170.5c-.6-.2-.9-.4-1-.6-.1-.8-.1-1.4.1-1.7.1-.3 1.1-1.2 2.6-.5.3.1.1 1.5.1 1.5l-1.1 1.2-.7.1z"/><path class="st21" d="M-24.3 170.9c-.6-.2-1.1-.7-1.2-.8-.1-.8.1-1.3.2-1.6.1-.3 1-1.2 2.3-.8.1 0 .4.2.4.2.3.1.1 1.7.1 1.7l-1.2 1.3h-.6z"/><path class="st25" d="M-24.7 170.4c-.6-.2-.9-.4-.9-.6-.1-.8-.1-1.4 0-1.6.2-.3 1.1-1.2 2.6-.5.3.1.1 1.5.1 1.5l-1.1 1.2h-.7z"/><path class="st21" d="M-19.1 171c-.6-.2-1.2-.7-1.2-.8-.1-.8 0-1.3.2-1.6.1-.3 1-1.2 2.3-.8 0 0 .4.2.4.3.3.1.1 1.7.1 1.7l-1.2 1.3-.6-.1z"/><path class="st25" d="M-19.5 170.6c-.6-.2-.9-.5-.9-.6-.1-.8-.1-1.4.1-1.6.1-.3 1.1-1.2 2.6-.5.3.2.1 1.6.1 1.6l-1.1 1.2-.8-.1z"/><path d="M-9.5 187c-.6-.3-3.6-1.8-6.8-2.9-3.3-1.1-23.5-6-23.5-6-.6-.2-1.4-.7-1.8-1.2l-3.5-4.7c-.4-.5.5-1.3.6-1.4l31.4-.3c.6 0 1 .5.9 1.1 0 0-.2 2.1 1.2 3.6 1.2 1.2 2.6 2 2.6 2 1.2.6 2.3 1.3 2.5 1.4l-3.6 8.4z"/><path class="st21" d="M-9.4 186.5c-.6-.3-2.9-1.4-6.2-2.5-3.3-1.1-23.7-6.3-23.7-6.3-.6-.2-1.4-.7-1.8-1.2l-3.5-4.8c-.4-.5-.2-.9.5-.9l31.7-.7c.6 0 1 .5.9 1.1 0 0-.2 2.1 1.2 3.7 1.2 1.2 2.6 2 2.6 2 1.2.6 2.3 1.3 2.5 1.4l-4.2 8.2z"/><linearGradient id="SVGID_4_" gradientUnits="userSpaceOnUse" x1="-465.655" y1="143.836" x2="-468.473" y2="140.936" gradientTransform="rotate(-62.807 -220.429 -204.51)"><stop offset="0" stop-color="#fff"/><stop offset=".01" stop-color="#f6f6f6"/><stop offset=".077" stop-color="#bdbdbd"/><stop offset=".157" stop-color="#898989"/><stop offset=".203" stop-color="#707070"/><stop offset=".265" stop-color="#626262"/><stop offset=".383" stop-color="#3d3d3d"/><stop offset=".542" stop-color="#010101"/><stop offset=".544"/><stop offset=".618" stop-color="#080808"/><stop offset=".732" stop-color="#1e1e1e"/><stop offset=".873" stop-color="#424242"/><stop offset="1" stop-color="#696969"/></linearGradient><path d="M-24.2 172.3c.6.3.9 1.1.6 1.8-.3.6-1.1.9-1.8.6-.6-.3-.9-1.1-.6-1.8.4-.7 1.2-.9 1.8-.6z" fill="url(#SVGID_4_)"/><path class="st27" d="M-24.2 172.3c.6.3.9 1.1.6 1.7-.3.6-1.1.9-1.7.5-.6-.3-.9-1.1-.5-1.7.2-.5 1-.8 1.6-.5z"/><path class="st21" d="M-24.4 172.6c.4.2.6.7.4 1.1-.2.4-.7.6-1.1.4-.4-.2-.6-.7-.4-1.1.1-.5.6-.7 1.1-.4z"/><path class="st27" d="M-7.6 182c-1.5-.7-13.4-6.2-17.3-7.9-.1 0-.2-.1-.2-.1-.1-.1-.2-.1-.2-.1-.3-.3-.3-.6-.2-.9.1-.2.3-.4.6-.4.1 0 .3 0 .4.1.2.1.3.2.4.4.1.1.1.5 0 .7-.1.1-.1.2-.2.2v.1h.1c.1-.1.2-.2.2-.3.2-.3.1-.7 0-.9-.1-.2-.3-.4-.5-.5-.2-.1-.4-.1-.5-.1-.3.1-.5.3-.7.5-.2.3-.2.7.2 1.1 0 0 .1.1.2.1s.1.1.2.1c3.9 1.8 15.9 7.2 17.3 7.9h.1c.2.1.2 0 .1 0z"/><path class="st28" d="M81.5 252c-3.7-3.7-5.3-3.3-17.2-5.5-10.5-1.9-11.4-8.6-10.4-9.8.9-1 4.5-.6 6.3-.1 7.1 1.8 8.1-1.2 9.3-3.3 1.5-2.6 2.3-8.6 2.8-11.5l-5.5-2.9c1.7-2 4.6-5.9 5.2-9 .7-3.1 1.8-7.4-4.2-11.6-4.6-3.2-5.3-3.8-5.1-5.7.2-1.5 6.9-7 19.8 4.9 12.8 11.9 13.2 12.3 18.4 13.2 5.2.9 22.6.6 30.6 6.4 7.9 5.7 8.4 14.6 6.8 21.4-3 8.7-5.7 13.7-5.9 14-.2.4-3.7 7.8-7.8 13-5.4 6.4-12.2 10-21.5 6.9-9.2-3-17.9-16.7-21.6-20.4z"/><path class="st25" d="M74.2 222.4c-.1-5.3-.1-8.7.5-9.7.6-.9 1.2-1.2 2.4-.6 1.1.6 3 2.2 6.3 4.5 2.7 1.9 6 3.9 15.7 4.5 9.7.7 13.9 5 14.3 8.1.3 2.8-.2 4.6-3 8.6-3.6 5-6.7 11.6-6.7 15.7 0 2.8.8 7.7.7 11.4-.1 1.6-1.6 3-2 3.2-1.6.5-3.2 1.6-11.3-8.5-8.1-10.1-9.7-11.4-13.4-12.7-4.6-1.6-10.4-1.5-14.7-2.9-4.3-1.4-6.3-3.4-6.1-4.6.1-.7.4-.5 2.1-.2 3.3.6 5.9 1.2 8.6-.5 2.7-1.6 4.6-3.7 5.6-7.3 1.3-4.9 1-9 1-9z"/><path d="M-9.9 186.3l4.3-8.3 85.8 43c.3.2.5.7.3 1.1l-4.4 8.6c-.2.4-.6.5-1 .4l-85-44.8z"/><path class="st21" d="M-10.1 186.7l4.3-8.3 85.8 43c.3.2.5.7.3 1.1l-4.4 8.6c-.2.4-.6.5-1 .4l-85-44.8z"/><path class="st27" d="M69.4 228.4h.1l4.9-9.4v-.1l-.3-.1H74l-4.8 9.4v.1l.2.1zM65.6 226.3h.1l4.8-9.3v-.1l-.3-.1s-.1 0-.1.1l-4.8 9.3v.1h.3zM61.4 224.1s.1 0 .1-.1l4.7-9.2v-.1l-.3-.1h-.1l-4.7 9.2v.1l.3.2zM56.5 221.5h.1l4.7-9v-.1l-.3-.1h-.1l-4.6 9v.1l.2.1zM50.9 218.5h.1l4.6-8.9v-.1l-.3-.1h-.1l-4.6 8.9v.1l.3.1zM44.6 215.2h.1l4.5-8.8v-.1l-.3-.1h-.1l-4.5 8.8v.1l.3.1zM37.9 211.7h.1l4.4-8.6v-.1l-.3-.1H42l-4.4 8.6v.1l.3.1zM30.8 207.9h.1l4.3-8.4v-.1l-.3-.1h-.1l-4.3 8.4v.1l.3.1zM23.5 204.1h.1l4.3-8.4v-.1l-.3-.1h-.1l-4.3 8.4v.1l.3.1zM15.4 199.9h.1l4.2-8.2v-.1l-.3-.1h-.1l-4.2 8.2v.1l.3.1zM7.7 195.8h.1l4.2-8.1v-.1l-.3-.1h-.1l-4.2 8.1v.1l.3.1zM-.3 191.6h.1l4.1-8v-.1l-.3-.1h-.1l-4.1 8v.1l.3.1z"/><path class="st21" d="M109 251.3c.2.1.5 0 .6-.2l6.3-12.3c.1-.2 0-.5-.2-.6l-6.4-3.3c-.2-.1-.5 0-.6.2l-6.3 12.3c-.1.2 0 .5.2.6l6.4 3.3z"/><path class="st25" d="M108 242.7l3.6 1.9c.2.1.3 0 .4-.1l.6-1.2c.1-.1 0-.3-.1-.4l-3.6-1.9c-.1-.1-.3 0-.4.1l-.6 1.2c-.1.1-.1.3.1.4zm1.1-.3c-.1-.1-.1-.2-.1-.2 0-.1.1-.1.2-.1l2.3 1.2c.1 0 .1.2.1.2 0 .1-.1.1-.2.1l-2.3-1.2z"/><path class="st21" d="M79.5 234.9c.6.3 1.4.1 1.7-.6l5.1-10c.3-.6.1-1.4-.5-1.7l-.6-.3c-.6-.3-1.4-.1-1.7.6l-5.1 10c-.3.6-.1 1.4.6 1.7l.5.3zM88.9 239.9c.6.3 1.4.1 1.7-.5l5.1-10c.3-.6.1-1.4-.6-1.7l-.6-.3c-.6-.3-1.4-.1-1.7.6l-5.1 10c-.3.6-.1 1.4.6 1.7l.6.2zM99.7 245.1c.7.1 1.4-.3 1.5-1l2.3-11c.1-.7-.3-1.4-1-1.5l-.6-.1c-.7-.1-1.4.3-1.5 1l-2.3 11c-.1.7.3 1.4 1 1.5l.6.1z"/><linearGradient id="SVGID_5_" gradientUnits="userSpaceOnUse" x1="-462.787" y1="149.551" x2="-465.605" y2="146.652" gradientTransform="rotate(-62.807 -220.429 -204.51)"><stop offset="0" stop-color="#fff"/><stop offset=".01" stop-color="#f6f6f6"/><stop offset=".077" stop-color="#bdbdbd"/><stop offset=".157" stop-color="#898989"/><stop offset=".203" stop-color="#707070"/><stop offset=".265" stop-color="#626262"/><stop offset=".383" stop-color="#3d3d3d"/><stop offset=".542" stop-color="#010101"/><stop offset=".544"/><stop offset=".618" stop-color="#080808"/><stop offset=".732" stop-color="#1e1e1e"/><stop offset=".873" stop-color="#424242"/><stop offset="1" stop-color="#696969"/></linearGradient><path d="M-17.8 172.4c.6.3.9 1.1.6 1.8-.3.6-1.1.9-1.8.6-.6-.3-.9-1.1-.6-1.8.4-.7 1.2-1 1.8-.6z" fill="url(#SVGID_5_)"/><path class="st27" d="M-17.8 172.4c.6.3.9 1.1.5 1.7-.3.6-.9 1-1.7.6-.6-.3-.9-1.1-.6-1.7.4-.7 1.1-1 1.8-.6z"/><path class="st21" d="M-18 172.6c.4.2.6.7.4 1.1-.2.4-.7.6-1.2.4-.4-.2-.6-.7-.4-1.1.2-.4.7-.6 1.2-.4z"/><path class="st27" d="M-5.1 181c-1.5-.7-9.5-5.1-13.4-6.8-.1 0-.2-.1-.2-.1-.1-.1-.2-.1-.2-.1-.3-.3-.3-.6-.2-.9.1-.2.3-.4.6-.4.1 0 .3 0 .4.1.2.1.3.2.4.4.1.1.1.5 0 .7 0 .1-.1.2-.2.2 0 0-.1.1 0 .1h.1c.1-.1.2-.2.2-.3.2-.3.1-.7 0-.8-.1-.2-.3-.4-.4-.5-.2-.1-.4-.1-.5-.1-.3 0-.5.3-.7.5-.2.3-.2.7.2 1.1 0 0 .1.1.3.2.1 0 .1.1.2.1 3.9 1.8 11.9 6.1 13.4 6.8h.1c0-.2 0-.2-.1-.2z"/><path class="st25" d="M109.1 240.4l3.6 1.9c.1.1.3 0 .4-.1l.6-1.2c.1-.1 0-.3-.1-.4l-3.6-1.9c-.1-.1-.3 0-.4.1l-.6 1.2c-.1.2-.1.4.1.4zm1.1-.3c-.1 0-.1-.2-.1-.2 0-.1.2-.1.2-.1l2.3 1.2c.1 0 .1.2.1.2 0 .1-.2.1-.2.1l-2.3-1.2z"/><path class="st27" d="M112.4 240.9L-5 181l-.1.1 117.5 60 .1-.1zM-7.7 182.1l118.9 61.2.1-.2L-7.6 182z"/><g><linearGradient id="SVGID_6_" gradientUnits="userSpaceOnUse" x1="-468.508" y1="139.714" x2="-471.327" y2="136.813" gradientTransform="rotate(-62.807 -220.429 -204.51)"><stop offset="0" stop-color="#fff"/><stop offset=".01" stop-color="#f6f6f6"/><stop offset=".077" stop-color="#bdbdbd"/><stop offset=".157" stop-color="#898989"/><stop offset=".203" stop-color="#707070"/><stop offset=".265" stop-color="#626262"/><stop offset=".383" stop-color="#3d3d3d"/><stop offset=".542" stop-color="#010101"/><stop offset=".544"/><stop offset=".618" stop-color="#080808"/><stop offset=".732" stop-color="#1e1e1e"/><stop offset=".873" stop-color="#424242"/><stop offset="1" stop-color="#696969"/></linearGradient><path d="M-29.2 173c.6.3.9 1.1.6 1.8-.3.6-1.1.9-1.8.6-.6-.3-.9-1.1-.6-1.8.4-.7 1.2-1 1.8-.6z" fill="url(#SVGID_6_)"/><path class="st27" d="M-29.1 173c.6.3.9 1.1.5 1.7-.3.6-1.1.9-1.7.5-.6-.3-.9-1.1-.6-1.7.4-.6 1.1-.8 1.8-.5z"/><path class="st21" d="M-29.4 173.2c.4.2.6.7.4 1.1-.2.4-.7.6-1.1.4-.4-.2-.6-.7-.4-1.1.2-.4.7-.6 1.1-.4z"/><path class="st27" d="M-8.4 183.9v-.1c-1.5-.7-17.6-7.3-21.5-9.1-.1-.1-.2-.1-.2-.1-.1-.1-.2-.1-.2-.1-.3-.3-.3-.6-.2-.9.1-.2.3-.4.5-.4.1 0 .3 0 .4.1.2.1.3.2.4.4.1.1.1.5 0 .7 0 .1-.1.1-.2.2 0 0-.1.1 0 .1h.1c.1-.1.2-.2.2-.3.2-.3.1-.7 0-.9-.1-.2-.3-.4-.5-.5-.2-.1-.4-.1-.5-.1-.3.1-.5.3-.7.5-.2.3-.1.7.2 1.1 0 0 .1.1.2.1s.1.1.2.1c3.9 1.8 20 8.4 21.5 9.1.2.2.3.2.3.1z"/><g><path class="st25" d="M106.5 244.9l3.6 1.9c.1.1.3 0 .4-.1l.6-1.2c.1-.1 0-.3-.1-.4l-3.6-1.9c-.2-.1-.3 0-.4.1l-.6 1.2c-.1.1 0 .3.1.4zm1.2-.3c-.1 0-.1-.2-.1-.2 0-.1.2-.1.2-.1l2.3 1.2c.1 0 .1.2.1.2 0 .1-.2.1-.2.1l-2.3-1.2z"/></g><path class="st27" d="M-8.6 183.8l118.5 61.8.1-.1-118.5-61.8z"/></g><g><linearGradient id="SVGID_7_" gradientUnits="userSpaceOnUse" x1="-470.949" y1="135.735" x2="-473.769" y2="132.833" gradientTransform="rotate(-62.807 -220.429 -204.51)"><stop offset="0" stop-color="#fff"/><stop offset=".01" stop-color="#f6f6f6"/><stop offset=".077" stop-color="#bdbdbd"/><stop offset=".157" stop-color="#898989"/><stop offset=".203" stop-color="#707070"/><stop offset=".265" stop-color="#626262"/><stop offset=".383" stop-color="#3d3d3d"/><stop offset=".542" stop-color="#010101"/><stop offset=".544"/><stop offset=".618" stop-color="#080808"/><stop offset=".732" stop-color="#1e1e1e"/><stop offset=".873" stop-color="#424242"/><stop offset="1" stop-color="#696969"/></linearGradient><path d="M-33.8 173.3c.6.3.9 1.1.6 1.8-.3.6-1.1.9-1.8.6-.6-.3-.9-1.1-.6-1.8.3-.7 1.1-.9 1.8-.6z" fill="url(#SVGID_7_)"/><path class="st27" d="M-33.8 173.4c.6.3.9 1.1.6 1.7-.3.6-1.1.9-1.7.6-.6-.3-.9-1.1-.6-1.7.3-.7 1.1-1 1.7-.6z"/><path class="st21" d="M-34.1 173.6c.4.2.6.7.4 1.1-.2.4-.7.6-1.2.4-.4-.2-.6-.7-.4-1.1.3-.5.8-.6 1.2-.4z"/><path class="st27" d="M-9.4 185.1c-1.5-.7-21.2-8.3-25.1-10-.1 0-.2-.1-.2-.1-.1-.1-.2-.1-.2-.1-.3-.3-.3-.6-.2-.9.1-.2.3-.4.6-.4.1 0 .3 0 .4.1.2.1.3.2.4.4.1.1.1.5 0 .7 0 .1-.1.2-.2.2v.1s.1.1.1 0l.3-.3c.1-.3.1-.7 0-.9-.1-.2-.3-.4-.5-.5-.2-.1-.4-.1-.5-.1-.3.1-.5.3-.7.5-.2.3-.1.8.2 1.1l.2.2c.1 0 .1.1.2.1 3.9 1.8 23.6 9.3 25.1 10h.1c.1 0 .1-.1 0-.1z"/><g><path class="st25" d="M105.4 247.1l3.6 1.9c.1.1.3 0 .4-.1l.6-1.2c.1-.1 0-.3-.1-.4l-3.6-1.9c-.2-.1-.3 0-.4.1l-.6 1.2c-.1.2-.1.3.1.4zm1.1-.3c-.1 0-.1-.2-.1-.2 0-.1.1-.1.2-.1l2.3 1.2c.1 0 .1.2.1.2 0 .1-.1.1-.2.1l-2.3-1.2z"/></g><path class="st27" d="M-9.4 185.4l118.1 62.4.1-.1-118.1-62.5z"/></g><path class="st32" d="M41.6 119.9c2.2.7 10.9-2.3 17.4 7.3 6.6 10.1 12.1 30.3 15.1 35.3-1.9-3.8.3-5.8-2.5-19.9l7.8 15.9-6-19.5 10.9 12.9s-.9-11.7-.3-10.1l1.8 4.8 9-14.1S73.7 103 63.5 99.9c-2.8-1.7-9.3-1.9-13.4-1.1-2.4.4-12.2 2.8-14.5 8.7-.6 1.7 6 12.4 6 12.4z"/><path class="st22" d="M32 117.8c-.1 2.5 4.4 46.1 4.4 46.1l1.2-7.9 1.3 8.7 1.5-10.1 2 10.3 1.8-.5-.8-16.3 2 16.7 3.2-5.6-6.1-26-6.8-16.9-3.7 1.5z"/><path class="st22" d="M35.6 107.3c-1.9 2.2-6.5 9.7-1 20.8 2.1 4.1 10.4 11.9 6-.1-1.3-3.7 0-7.1 0-7.1l1.3-1.3-6.3-12.3z"/><path class="st23" d="M31.2 212.5l2.5-1.2s1.2-.3 1.3-1.7c0-.6-1.2-.7-2-.5-.2.1-2.5.9-2.5.9s.8-.3 1.4-.8c1.1-1 2.1-2.1 1.3-3-.9-.9-2.8 1.1-3.9 1.3.7-.5 2.7-2.5 2.1-3.2-.7-.7-3.6.6-3.8.7-.2.1-1.6 0-1.6 0s2-1 2.2-1.4c.3-.3.2-1-.4-1.5-.6-.5-3 .2-3.5.3-.5.2-2.6-.2-3.2 0-.7.2-.1 2.3-.1 2.8.1.5 1.4.4 1.5.9.2.5.4 2 1 2.4.7.4 1.8.9 1.8.9s.4 1 1.2 2c.8.9 1.6.5 1.8 1.2.2.5 2.9-.1 2.9-.1z"/><linearGradient id="SVGID_8_" gradientUnits="userSpaceOnUse" x1="278.959" y1="260.144" x2="294.702" y2="218.912" gradientTransform="matrix(-1 0 0 1 384.741 0)"><stop offset="0" stop-color="#fff"/><stop offset=".101" stop-color="#fafafa"/><stop offset=".217" stop-color="#edecec"/><stop offset=".342" stop-color="#d7d5d5"/><stop offset=".473" stop-color="#b8b4b4"/><stop offset=".606" stop-color="#918b8b"/><stop offset=".729" stop-color="#665e5e"/></linearGradient><path fill="url(#SVGID_8_)" d="M80.6 244l27.3 25.4 14.8-14.8-28.3-30z"/><path class="st23" d="M92.7 217.5c-2.1 3.4-12.6 12.2-13.1 14.3-.4 2.1-2.5 6.7-2.5 6.7l3.4 6s1.3 0 1-1.9c-.4-1.9-.4-3.9-.4-3.9s.6 4.7 1.1 5.8c1.2 2.8 2.4 2.6 2.4 2.6s.7-.1-.6-5.1c-.3-1.3-.3-2.2 0-2.8 0 .8 0 1.5.1 1.9.3 1 1.5 5.9 2.5 6.2 1 .3 1-1.5.6-3.7-.1-.8-.2-2.5-.2-4l1.3 5.7s.3 2.3 1.7.3c1.4-2-.1-5.6.5-7.3.6-1.8 6.2-7.6 7.8-13.8 1.6-5.3-5.6-7-5.6-7z"/><path class="st0" d="M98.4 139.3c-3.8 7.1.5 34.2-1.4 45.2-1.6 9.2-10.7 38-10.7 38l16.5 8.5s14.3-36.3 14.5-42.8c.3-11 3.8-35.6-7.1-47.9-5.7-6.5-11.8-1-11.8-1z"/><g><path class="st23" d="M279.4 141.8c-7.1-1-23.6-8.5-25.3-9.5-1.7-1-5.8-25.1-3.1-25.5 2.7-.3 5.4.7 8.2 2.7 2.7 2 19.4 14.9 19.4 14.9l.8 17.4z"/><path d="M254.1 104.9c1.2-2.6 15.6 12.1 15.6 12.1s2.9 22.8 4.3 24.8c-6.5-2.4-16.1-8.2-16.8-8.5-.7-.3-7.2-19.2-3.1-28.4z"/><path class="st23" d="M281.8 83.2c-.6 2.4-3.2 10.9-4.1 11.7-.9.8 17.8 38.5 4.4 47.7 0 0-9.4 1-10.1-14.8-.7-15.9-2.7-26.5-3.6-28.6-.9-2.1-3.6-9.4-3.6-9.4l5.4-7.8 11.6 1.2z"/><path class="st22" d="M203.5 86.6c1.1 3.5 2.8 3.8 2.8 3.8l9.4 2.4s33.9-27.9 26.8-35.4c-7-7.5-27.4-7.2-29.6-4.5-2.1 2.6-11.1 26.2-11.2 27.4 0 1.2 1.8 6.3 1.8 6.3z"/><path d="M261.8 400.6c-4.6-1.2-6.6-9.8-8.1-15.9 0 0-13.4-2.9-14.9 3.1-1.2 4.6-3.3 12.8-2.3 16.5h-.2l2.8 6.7 8.6.3 1.2-2.7c6.9 2 14.3 4.7 14.3 4.7s11.8-.6 12.9-8.4c.9-6.2-4.6-1.7-14.3-4.3zM194.6 407.7c-1.8-3.2-16.2-4.6-15.6-23.5.3-8.6 7.6-19.2 7.6-19.2l-17.2 2.2c-.4 1.2-.8 2.3-1.2 3.4l.2-2.7c-4.5 2.9-9.3 13-10.3 21.5-.5 4.3.4 15.3.4 15.3l7.8.7-4.1-5.5c2.4 4.7 5.3 8.1 9.8 10.6 13.6 7.7 25 1.4 22.6-2.8z"/><path d="M271.5 223.5c3.4 27.7-2.3 86.3-4.3 93.1-14.3 47.5-9.5 76.8-9.5 76.8l-23.1-.7s-14.3-41.4-.7-80.2c4.5-12.9 2-38.2 5.4-64.2 0 0-8.9 42.4-25.1 68.9-9.8 16.1-27.7 71-33.3 73.4l-23.3-3.1c17.8-81.8 26.9-63.6 32.3-87.4 3.1-13.9 10.7-89.3 22.8-112.8l51.6-.2c-.1 0 3.3 4.4 7.2 36.4z"/><path class="st23" d="M232 78l1.7 20.4 10.4 5.1s-3.9 20.3-10.4 23.3c-6.4 3-36.6-15.2-36.9-19.8-.1-1.9 9.5-5.6 10.9-8.2 4-7.2 3.3-19.8 3.3-19.8l21-1z"/><linearGradient id="SVGID_9_" gradientUnits="userSpaceOnUse" x1="538.885" y1="88.419" x2="555.429" y2="45.683" gradientTransform="scale(-1 1) rotate(-3.21 669.89 13724.324)"><stop offset="0" stop-color="#fff"/><stop offset=".119" stop-color="#fafafa"/><stop offset=".257" stop-color="#ececec"/><stop offset=".404" stop-color="#d5d5d5"/><stop offset=".557" stop-color="#b4b4b4"/><stop offset=".715" stop-color="#8b8b8b"/><stop offset=".729" stop-color="#878787"/></linearGradient><path d="M233.7 97.7c-1.4-6-.2-17.9 1.4-23.1 1.2-4-18.4 1.6-23.3 5.6L209.2 96c-1.1 3.4-5.4 6.1-11.5 10.2-3.3 4 9.2 14.5 9.8 13.6-.5-.6 26.7-20.1 26.2-22.1z" fill="url(#SVGID_9_)"/><path d="M211.7 112.6c5.1 3 22.9 1.9 22.9 1.9s19.5 100.4 14.5 103.4c-5.1 3.1-47.9 7.1-48.9 1s7.8-39.4-3.1-66.2c-5.6-13.8-18.6-35.4-18.6-35.4s12.1-9.9 19.7-12.8c.7-.3 2.7-1.3 3.3-1.5 0-.1 2.2 4.9 10.2 9.6z"/><path class="st21" d="M239.5 100.6c3.1 1 16.1 4.2 16.1 4.2s-2.8 16.7 1.5 28.5c8.8 24.1 10.2 68.8 9.7 74.9-.5 6.1-20.4 8.1-20.4 8.1s1.2-41.3-17.7-100.9c-.5-1.6 8.2-3.2 10.2-6.8 2.1-3.5.6-8 .6-8z"/><path transform="rotate(34.604 187.886 210.03)" class="st27" d="M184.5 63.4h6.7v293.3h-6.7z"/><path class="st23" d="M179.3 122.6c-9.2 15.4-16.5 40.3-15.1 46.1 0 0 9.2 23.7 17.9 28.8l7.6-6.1-9.4-27 15.1-27-16.1-14.8z"/><path class="st23" d="M196.6 191.1c-1.9-.3-6.3.1-7.3-1-4.7 3.1-8 6-8 6.8.1.8.5 7.5 2.8 8.5 2.2 1 12.5-14.3 12.5-14.3z"/><path class="st23" d="M197.5 190.9c-2.1-.9-3.5-.9-4.8.8-.3.4-1.2.4-2.3 1.1-.8.5-1.3 1.6-2.2 2.4-1.7 1.5-2.3 3.7-3.2 4.5-2.1 2-2.5 4.2-1.1 5.8 1.5 1.7 10.7 6.9 12.4 7.1 0 0 1.9.4.1-1.9-1.7-2.3-7.2-6.5-7.2-6.5s9 8.4 11.3 6.4c1-.9-6.6-8.1-8.3-10.7 5.9 5.9 11 11.6 11.2 8.3.2-3.3-7.6-13.1-7.6-13.1s7.6 11.2 9.2 9.4c1-1.2-5.9-12.9-7.5-13.6z"/><path d="M179.9 116.6c-4.6 2-12.6 26.9-12.6 26.9s18 10.1 21.2 12.5c2.5 1.9 13.3-16.2 13.3-16.2l-21.9-23.2zM260.7 87.4c0 4.2-3.4 7.6-7.6 7.6-4.2 0-7.6-3.4-7.6-7.6 0-4.2 3.4-7.6 7.6-7.6 4.2 0 7.6 3.4 7.6 7.6z"/><path d="M289.2 88.6c0 1.6-1.3 3-3 3h-31.1c-1.6 0-3-1.3-3-3v-2.2c0-1.6 1.3-3 3-3h31.1c1.6 0 3 1.3 3 3v2.2z"/><path class="st21" d="M286.2 83.4h-31.1c-.5 0-1 .2-1.5.5V87h35.6v-.6c0-1.7-1.3-3-3-3z"/><path class="st23" d="M268.5 78.5c-2.3.6-3.9 5.7-3.4 9.6.6 3.8 3.1-4.6 5.1-6.2-.6 1.3-4.6 7.3-3 8.1 1.6.7 5.3-5 6.3-6.4.8-1.1 1.1-1.4 1.1-1.4s-1 1.1-2.3 3.8c-.6 1.2-2.4 3.3-.9 3.5 1.5.3 5.5-5.8 6.1-6.1.6-.3-3.8 4.6-2.9 5.2.9.6 7-4.7 7.1-5.5.3-2.1-3.3-4.5-5.8-5-3.6-.7-7.4.4-7.4.4z"/><path class="st23" d="M265 94c-.9-1.3-4-1.7-3.5-5 .4-3.3.1-5.9 1.3-4.3 1.2 1.6 1 4.1 1.7 5.2.7 1.1 2 1.1 2 1.8-.4 1.1-1.5 2.3-1.5 2.3z"/><path class="st32" d="M244 58.3c1.5 13.5-1.3 27.2-4 31.1-2.6 3.9 0-1.1-.1-2.1-.1-1.1-3.3 6.3-3.3 6.3l.3-3.5s-1.8 2-2.3 2.5c-.6.5-2.9.3-3.9.2-1.1-.1 7.9-28.3 7.9-28.3l5.4-6.2z"/><path class="st23" d="M207.9 65.7c1.2-9.9 4-18 18.1-16.6 17.7 1.8 16.8 11.9 15.1 23.4-1.8 12-8.8 25.7-17.9 24.9-6.9-.6-13.9-8.6-15.4-17.7-1.8-1.2-2.9-3.8-2.8-6.9.1-3.8.3-7 2.9-7.1z"/><g><path class="st23" d="M204.7 73.2c-.1 3 1.1 5.7 2.8 6.9 1.5 9.1 8.4 17 15.3 17.7-8.6-14.3-3.5-34.9.4-43.1l-11.7-1c-2.4 3.1-3.4 7.4-4 12.3-2.5 0-2.6 3.2-2.8 7.2z"/></g><path class="st32" d="M227.5 45.5c6.4-1.4 11.6 2.7 14.3 5.8 2.4 2.7 2.4 5.6 2.1 10.9-.3 5.3-1.6 7-1.6 7l-.6 1.8.2-4.9s.8-1.9-3.2-6.1c-3.9-4.2-12.6-4.9-12.6-4.9l1.4-9.6z"/><path class="st22" d="M235 46.8c-2-2.3-6.6-3-10.4-3v-.1c-.5 0-.9.1-1.4.1-1 0-1.8.1-2.5.2-22.5 2-20.4 16.3-23.8 24.1-6.5 14.8.2 20.1 1.7 20.7 2 .8 1.5-.5 1.2-1.1l1.6 3 2.5-1.5 2.5 1.6s-2.1-18 .1-22.8c.2-.5.5-1 .7-1.4h.2l3.1-.1s2.3-2.7 3.6-4.6c1.4-1.9 6.1-4.3 10.7-3.6 4.6.7 10.1 1.3 12-.5 0-.1-.5-9.4-1.8-11z"/></g><linearGradient id="SVGID_10_" gradientUnits="userSpaceOnUse" x1="423.391" y1="410.123" x2="663.851" y2="179.169"><stop offset=".311" stop-color="#fff"/><stop offset=".402" stop-color="#fbfbfb"/><stop offset=".496" stop-color="#eee"/><stop offset=".592" stop-color="#dadada"/><stop offset=".689" stop-color="#bdbdbd"/><stop offset=".787" stop-color="#979797"/><stop offset=".884" stop-color="#6a6a6a"/><stop offset=".902" stop-color="#616161"/></linearGradient><path opacity=".69" fill="url(#SVGID_10_)" d="M574.3 120.3l-99.2 65.9L318 451.5l242.2 1.5 50.7-103.2-4-183.9-17.2-22.6 35.9-33.5z"/><linearGradient id="SVGID_11_" gradientUnits="userSpaceOnUse" x1="132.521" y1="353.695" x2="357.204" y2="137.894"><stop offset=".311" stop-color="#fff"/><stop offset=".402" stop-color="#fbfbfb"/><stop offset=".496" stop-color="#eee"/><stop offset=".592" stop-color="#dadada"/><stop offset=".689" stop-color="#bdbdbd"/><stop offset=".787" stop-color="#979797"/><stop offset=".884" stop-color="#6a6a6a"/><stop offset=".902" stop-color="#616161"/></linearGradient><path opacity=".69" fill="url(#SVGID_11_)" d="M291.6 137l-99.2 65.8L78.1 438.2l78-36.4 243.2-210.9-69.2-15.5 53.6-37.6-40.8-11.4z"/><g><path d="M465.3 231.9c-16 8.1-21.6 15.2-22.7 19.8-1.3 5-10.3 55.4-10.3 55.4l35.6-55.4 2.5-10.2-5.1-9.6z"/><path d="M468.1 225.1c-3.8 3.8-9 24.8-9.7 28-1.5 6.9 8.9 0 25.3-.7 16.4-.6 30.9 6.3 34.7 3.2 11.4-9.4.8-28.8.8-28.8l-51.1-1.7z"/><path class="st23" d="M528.8 151.6c10.7 6.6 28.5 17.8 29.5 21.9 0 0-2.2 20.5-20 27.1l-4.9-5 10.4-16.8-23.3-12.1 8.3-15.1z"/><path class="st23" d="M528.6 195.5c1.3-.1 4.4.3 5.1-.3 3.1 2.4 5.3 4.6 5.2 5.1-.1.6-.7 5.2-2.3 5.8-1.7.5-8-10.6-8-10.6zM480.4 127.9l1.2 16.9-9.7 6.4s13 17.2 18.5 19.2 18.8-15 18.7-18.8c0-1.2-7.6-4.4-8.3-7.5-1.6-7.2-1-14.3-1-14.3l-19.4-1.9z"/><path class="st23" d="M507 150.4c-.1-1.5-5.5-5.7-5.8-10.3-.4-6.7-.4-10.5-.4-10.5l-8.2 1.3-3 41.5c5.5 1.8 17.6-18.3 17.4-22z"/><linearGradient id="SVGID_12_" gradientUnits="userSpaceOnUse" x1="479.25" y1="159.561" x2="496.097" y2="111.681"><stop offset="0" stop-color="#fff"/><stop offset=".119" stop-color="#fafafa"/><stop offset=".257" stop-color="#ececec"/><stop offset=".404" stop-color="#d5d5d5"/><stop offset=".557" stop-color="#b4b4b4"/><stop offset=".715" stop-color="#8b8b8b"/><stop offset=".729" stop-color="#878787"/></linearGradient><path d="M480 125.4c-.1-3.5 15.8 4.3 20.1 7.2l-14.4 28.6c-2.7-.9-5.5-13.9-6.4-15 4.5-.2 1.1-10 .7-20.8z" fill="url(#SVGID_12_)"/><path class="st23" d="M501.4 115.8c-1.2-7.7-3.6-14-14.6-12.5-13.8 1.9-11.5 10.2-10.3 19.7 1.1 9.5 8.3 18.9 15.4 18 5.4-.6 9.1-7 10.1-14.2 1.4-1 2.2-3.1 2-5.5-.4-3-.6-5.5-2.6-5.5z"/><path class="st23" d="M475.8 119.2h-.6c-2.1.4-1.7 3-1 6.1.5 2.7 2.3 4.7 4.1 4.9 2.9 6.5 7.3 11.5 12.5 10.9.2 0 .5-.1.7-.1l-8-35.6c-11.8 1.5-8.6 6-7.7 13.8z"/><path class="st22" d="M486 100.3c-3.2-1.2-9.4 2.7-11.5 5.2-1.8 2.2-2.1 4.8-1.7 8.9.4 4.1 1.4 5 1.4 5l1.7.2 1.4.7-.6-2.9s-.9-3.4 2.1-6.8 8.2-2.5 8.2-2.5l-1-7.8z"/><path d="M478.2 110.3c3.7 3.1 12.1.8 15.7.1 3.6-.7 5.5 6.1 5.5 6.1l2.3-.6 1.5.5s.5-6.9-2.5-11.3c-2.3-3.3-4.3-5.3-8.9-6-2.1-.3-12.3.6-13.5 3.8-.7 1.6-.1 7.4-.1 7.4z" fill="#5e1c17"/><path d="M482.3 155c-3.2-4.8-2.4-9.3-2.4-9.3s-1.9.2-13.3 3.5c-5.8 1.7-8.5 3.8-9 8s6.3 21.3 7.2 26c.9 4.7 1.3 41.7 4.3 47.4.1.3 7.4-1 23.2-.7 0-17.2-.6-59.6-1.6-68.9.1-.7-4.2.2-8.4-6z"/><path class="st21" d="M503.9 144.9s2.6.1 15.2 2.2c4.5.7 5.5 1.5 6 5.7s-3.4 18.6-4.4 23.3c-.9 4.7-2.2 42.4-1.6 50.7.3 4.6-22.6 3.1-31.4 3.2 0-17.2-.3-69.1 2.1-69.4 16.6-2.2 14.1-15.7 14.1-15.7z"/><path class="st39" d="M533.1 203.9s-55.2-19.6-54.9-21.7c.3-1.8 52.2 16.2 54.3 18.5 2.3 2.4.6 3.2.6 3.2z"/><path class="st23" d="M460 153.8l-23.9 14.1-18.7-17.3c-.8-.9-5.5-5.4-6.7-6.6-1.2-1.2-2.8-2.5-4.1-3.6-1.3-1-5.8-2.6-7-2.4-1.4.3-.9 1.7 1.4 2.9 1.8.9 1.5 1.1 1.5 1.1s-6.1 6.9-5.8 8.4c.3 1.5 0 2.2 3.5 3.4 4.2 1.4 7.2 1.3 10 2.5.1 0 8.5 19.3 18.5 24.9 1.2 1.1 2.7 2.1 4 2.4 4 .9 32.4-10.6 32.4-10.6l-5.1-19.2z"/><path d="M462 151.3l-22.5 13.1 10.3 16.9 20-6.7z"/><path d="M415.3 157.1s-37.1-45.3-39-44.3c-1.6.9 32.9 43.6 35.8 44.9 2.9 1.3 3.2-.6 3.2-.6z" fill="#e08f53"/><path class="st23" d="M396.2 142.6c-.9-.6-.9-2.8.6-2.7 1.5 0 7.7 2.2 7.9 2.8.2.6-1.2 1.5-4 1.4-3-.1-4.5-1.5-4.5-1.5z"/><path class="st23" d="M395.5 146.2c-.7-.5-1-3.1.9-3.2.9-.1 7.9 1.5 8.3 2.4.4.9-.3 1.3-1.6 1.5-1.4.1-7.6-.7-7.6-.7zM398.1 152.2c2.4-.4 6.6-.9 6.3-2.2-.3-1.3-4.7-.4-5.8-.7-1.1-.3-2.7-.5-2.3 1.5.5 2 1.8 1.4 1.8 1.4z"/><path class="st23" d="M396.2 149.3c-.8-.5-2-2.7.2-3.1 1.8-.3 8.5.8 8.8 1 .4.2-.3 1.8-2.4 1.9-2.1.2-6.6.2-6.6.2z"/><path d="M522.6 147.9c3.8 0 25.5 15.4 25.5 15.4s-8.2 10.7-9.7 13.3c-1.2 2.1-18.1-4.4-18.1-4.4l2.3-24.3z"/><path class="st23" d="M527.9 195.3c1.5-.5 2.5-.4 3.3.8.2.3.8.3 1.6.9.5.4.8 1.2 1.4 1.8 1.1 1.1 1.5 2.7 2 3.3 1.4 1.5 1.6 3.1.5 4.1-1.1 1.1-7.8 4.3-9 4.3 0 0-1.3.2 0-1.3s5.3-4.2 5.3-4.2-6.7 5.4-8.2 3.9c-.7-.7 5-5.3 6.3-7-4.4 3.8-8.2 7.5-8.2 5.2s5.9-8.8 5.9-8.8-5.8 7.4-6.9 6.1c-.5-.9 4.9-8.7 6-9.1z"/><g><path class="st27" d="M434.6 310.3c-1.2-1.9-20.8-3.4-44.9-3.4-24.8 0-44.9 1.6-44.9 3.6 0 .1 0 .1.1.2v3.8h89.8l-.1-4.2z"/><path class="st41" d="M346.1 239.4v74h.1c.7 1.3 27.2 5.5 41.3 5.5 14.1 0 44.8-4.3 45.5-5.5h.1v-74h-87z"/><path class="st28" d="M433.1 313.4v-74h-45.4l.1 79.5c15.5.2 44.5-4.3 45.3-5.5z"/><path class="st27" d="M433.9 239c0 1.3-19.8 2.3-44.3 2.3-24.5 0-44.3-1-44.3-2.3v4.4c0 1.3 19.8 2.9 44.3 2.9 24.5 0 44.3-1.7 44.3-2.9V239z"/><path class="st27" d="M434.9 236.4c-1.2-1.9-21.1-3.4-45.6-3.4-25.2 0-45.6 1.6-45.6 3.6 0 .1 0 .1.1.2v3.8H435l-.1-4.2z"/><path class="st42" d="M430.8 239.2c0 1.8-18.5 3.2-41.3 3.2-22.8 0-41.3-1.4-41.3-3.2 0-1.8 18.5-3.2 41.3-3.2 22.8-.1 41.3 1.4 41.3 3.2z"/><path class="st25" d="M389.3 240.5c-25.2 0-45.6-1.6-45.6-3.7v3.8c3.8 1.7 22.8 3.1 45.7 3.1 22.6 0 41.4-1.3 45.6-3v-3.9c0 2-20.5 3.7-45.7 3.7z"/><g><path class="st25" d="M389.7 317.7c-24.8 0-44.9-5-44.9-7v3.8c2.7 3.1 22.4 6.4 45 6.4 22.2 0 41.9-4.3 44.8-6.3v-3.9c0 2-20.1 7-44.9 7z"/></g><g><path class="st27" d="M364.6 340.4c0 .7-.8 1.2-1.9 1.2-1 0-1.9-.5-1.9-1.2v-73.9c0-.7.8-1.2 1.9-1.2 1 0 1.9.5 1.9 1.2v73.9z"/><path class="st27" d="M353.3 362.5l8.2-23.8 3 1-8.1 23.8-3.1-1z"/><path class="st21" d="M358.1 359l-3.9-.1s-3.7 3.2-3.1 4.9c.4 1.1 6.3 1 6.5-.3.1-1.4.5-4.5.5-4.5z"/></g><g><path class="st27" d="M417.8 340.4c0 .7.8 1.2 1.9 1.2 1 0 1.9-.5 1.9-1.2v-73.9c0-.7-.8-1.2-1.9-1.2-1 0-1.9.5-1.9 1.2v73.9z"/><path class="st27" d="M417.8 339.7l3.1-1 8.1 23.8-3 1-8.2-23.8z"/><path class="st21" d="M424.3 359l3.9-.1s3.7 3.2 3.1 4.9c-.4 1.1-6.3 1-6.5-.3-.2-1.4-.5-4.5-.5-4.5z"/></g><g><path class="st1" d="M583.8 362.1l-24.2-27.6h-2.8l-27 26.9c-.7.7-1.9.7-2.6 0-.7-.7-.7-1.9 0-2.7l27.5-27.5c.3-.4.8-.6 1.3-.6h4.4c.5 0 1 .2 1.4.6l24.8 28.3c.7.8.6 2-.2 2.6-.4.3-.8.5-1.2.5-.5.1-1.1-.1-1.4-.5z"/><path class="st21" d="M581.3 359l5.2-.1s3.6 2.2 3.1 3.4c-.4.8-7.5.7-7.7-.2-.3-.9-.6-3.1-.6-3.1zM532 358.9l-4.8-.1s-3.6 2.2-3.1 3.4c.4.8 7.2.7 7.3-.2.3-1 .6-3.1.6-3.1z"/><g><path class="st27" d="M554.9 265h6.6v70.3h-6.6z"/><path class="st27" d="M554.6 266.4l-17.2-9.5 1.4-2.5 16.6 9.2h5.8l15.1-10.1 1.6 2.3-15.8 10.5h-7.5v.1zm-17.2-9.6z"/><path class="st41" d="M524.5 227.6v26.2h.1c.9 1.6 15.6 2.9 33.6 2.9s32.7-1.3 33.6-2.9h.1v-26.2h-67.4z"/><path class="st28" d="M591.9 253.9v-26.2h-33.5v29.1c18-.1 32.5-1.3 33.5-2.9z"/><path d="M536.3 231.8c-6-.5-10.2-1-12.4-1.9-.5-.3-1-.5-1.2-2.3.2-1.8.7-2 1.2-2.3.7-.3 1.4-.5 2.4-.7 1.9-.4 4.4-.7 7.6-1 6.3-.6 14.8-.9 24.3-.9 8.3 0 15.9.3 21.9.7 6 .5 10.2 1 12.4 1.9.5.3 1 .5 1.2 2.3-.2 1.8-.7 2-1.2 2.3-.7.3-1.4.5-2.3.7-1.9.4-4.4.7-7.5 1-6.3.6-14.9.9-24.3.9-8.5 0-16.1-.2-22.1-.7zm-2.1-3.9c6.1.5 14.6.9 24 .9 8.3 0 15.8-.3 21.7-.7a63 63 0 0 0 5.1-.5c-.9-.1-1.8-.2-2.8-.3-6.1-.5-14.6-.9-24-.9-8.3 0-15.8.3-21.7.7a63 63 0 0 0-5.1.5c.9.1 1.8.2 2.8.3z" fill="#e0d9d7"/><path class="st42" d="M591.9 228c0 1.6-15.1 2.3-33.7 2.3s-33.7-.7-33.7-2.3c0-1.6 15.1-2.9 33.7-2.9 18.6.1 33.7 1.3 33.7 2.9z"/><path class="st27" d="M592.5 251.1c-.2-.1-.3-.1-.5-.2v1h-.1c-.9 1.6-15.6 2.9-33.6 2.9s-32.7-1.3-33.6-2.9h-.1v-1c-.2.1-.4.1-.5.2-.5.3-.7.3-.8 2.3.2 1.8.2 2 .8 2.3 2.2.9 6.3 1.4 12.4 1.9 6 .4 13.6.7 21.9.7 9.5 0 18.1-.3 24.3-.9 3.1-.3 5.7-.6 7.5-1 .9-.2 1.7-.4 2.3-.7.5-.3.5-.5.7-2.3-.2-1.7-.2-1.9-.7-2.3z"/></g></g><g><path class="st1" d="M252.5 190.2c-.8-1.2-.4-2.8.8-3.6l84.8-54.3c1.2-.8 2.8-.4 3.6.8.8 1.2.4 2.8-.8 3.6L256.1 191c-.4.3-.9.4-1.4.4-.9 0-1.7-.4-2.2-1.2z"/><path class="st27" d="M341.5 127.1c0 .9-.9 1.6-2.1 1.6-1.1 0-2.1-.7-2.1-1.6v-7.2c0-.9.9-1.6 2.1-1.6 1.2 0 2.1.7 2.1 1.6v7.2z"/><path class="st21" d="M335.1 122.6h8.7v5.8h-8.7z"/><path class="st42" d="M389.4 135.9c0 4.1-22.4 4.6-50 4.6s-50-.5-50-4.6c0 0 22.4-7.5 50-7.5s50 6.4 50 7.5z"/><path class="st42" d="M346.4 128.9c0 1.6-1.3 2.8-2.8 2.8h-8.2c-1.6 0-2.8-1.3-2.8-2.8 0-1.6 1.3-2.8 2.8-2.8h8.2c1.5 0 2.8 1.3 2.8 2.8z"/><path class="st27" d="M301.7 352.3h-7.8V163.9l7.8-5.5z"/><g><path class="st1" d="M253.1 370.2l39.6-63.4h9.3l44 61.5-3.5 2.6-42.7-59.8h-4.7l-38.3 61.4-3.7-2.3z"/><path class="st21" d="M260.2 367.2l-6-.2s-5.7 4.8-4.8 7.4c.6 1.7 9.7 1.6 10-.4.2-2 .8-6.8.8-6.8zM339.7 367.2l6-.2s5.7 4.8 4.8 7.4c-.6 1.7-9.7 1.6-10-.4-.3-2-.8-6.8-.8-6.8z"/></g><g><path class="st1" d="M278.3 360.2c-.9-.3-1.4-1.3-1.1-2.2l16.8-47.1c.3-.9 1.3-1.4 2.2-1.1.9.3 1.4 1.3 1.1 2.2l-16.8 47.1c-.2.7-.9 1.2-1.6 1.2-.2.1-.4 0-.6-.1z"/><path class="st21" d="M281.8 357.2l-5-.2s-4.8 4.1-4 6.3c.5 1.5 8.1 1.3 8.4-.4.2-1.7.6-5.7.6-5.7z"/></g><path class="st27" d="M304.6 165.9c0 3.8-3.1 6.9-6.9 6.9-3.8 0-6.9-3.1-6.9-6.9V160c0-3.8 3.1-6.9 6.9-6.9 3.8 0 6.9 3.1 6.9 6.9v5.9z"/></g><g><path class="st1" d="M301.4 224.2c-.4-1 0-2.1 1-2.6l55.7-25.3c1-.4 2.1 0 2.6 1 .4 1 0 2.1-1 2.6L304 225.1c-.3.1-.5.2-.8.2-.8 0-1.5-.4-1.8-1.1z"/><path class="st27" d="M338.3 348.1h-5.8l-1.4-137.2 5.8-4z"/><path class="st1" d="M302 361.5l29.6-47.4h6.9l32.9 46-2.7 1.9-31.8-44.7h-3.5l-28.6 45.9-2.8-1.7z"/><path class="st21" d="M307.3 359.3l-4.5-.2s-4.2 3.6-3.6 5.6c.4 1.3 7.2 1.2 7.4-.3.3-1.6.7-5.1.7-5.1zM366.7 359.3l4.5-.2s4.2 3.6 3.6 5.6c-.4 1.3-7.2 1.2-7.4-.3-.3-1.6-.7-5.1-.7-5.1z"/><path class="st27" d="M363.5 201.5c-.6 1.5-2.9 2-5 1.1-2.2-.9-3.4-2.8-2.8-4.3l4.3-10.2c.6-1.5 2.9-2 5-1.1 2.2.9 3.4 2.9 2.8 4.3l-4.3 10.2zM368.9 175.1c-.1.6-.9 1-1.8.8-.8-.2-1.4-.9-1.3-1.5l1.2-5.3c.1-.6.9-1 1.8-.8.8.2 1.4.9 1.3 1.5l-1.2 5.3z"/><path transform="rotate(12.393 367.66 173.612)" class="st21" d="M364.4 171.5h6.5v4.4h-6.5z"/><path class="st44" d="M402.5 189.2c-.7 3-17.1-.2-37.2-4.6-20.1-4.4-36.4-8.4-35.7-11.4 0 0 17.5-1.9 37.7 2.5 20 4.5 35.3 12.7 35.2 13.5z"/><path class="st44" d="M372.2 177.2c-.2 1.1-1.4 1.9-2.5 1.6l-6-1.3c-1.1-.3-1.9-1.4-1.6-2.5.2-1.1 1.4-1.9 2.5-1.6l6 1.3c1.1.3 1.8 1.4 1.6 2.5z"/><path class="st27" d="M338.9 213c0 2.6-2.2 4.7-4.9 4.7s-4.9-2.1-4.9-4.7v-4c0-2.6 2.2-4.7 4.9-4.7s4.9 2.1 4.9 4.7v4z"/><path class="st1" d="M332.5 349.4c-.3 0-.6-.1-.9-.3L319.5 338c-.5-.5-.6-1.3-.1-1.8s1.3-.6 1.8-.1l11.8 10.7h4.7l11.4-13.9c.5-.6 1.3-.6 1.8-.2.5.5.6 1.3.2 1.8l-11.8 14.4c-.3.3-.6.5-1 .5h-5.8z"/></g><g><path class="st1" d="M642.6 211.5L582.9 140c-.9-1.1-.8-2.7.3-3.7 1.1-.9 2.7-.8 3.7.3l59.7 71.5c.9 1.1.8 2.7-.3 3.7-.5.4-1.1.6-1.7.6-.8 0-1.5-.3-2-.9z"/><path class="st27" d="M603.1 349.8h7.8V167.3l-7.8-5.4z"/><path class="st1" d="M609.8 308.6h-4.7l-42.7 59.8-3.5-2.5 43.9-61.6h9.2l45.8 63.3-3.6 2.5-44.4-61.5z"/><path class="st21" d="M650.8 364.8l6-.2s5.7 4.8 4.8 7.4c-.6 1.7-9.7 1.6-10-.4-.3-2.1-.8-6.8-.8-6.8zM565.2 364.8l-6-.2s-5.7 4.8-4.8 7.4c.6 1.7 9.7 1.6 10-.4.2-2.1.8-6.8.8-6.8z"/><path class="st1" d="M624.3 356.7l-16.8-47.1c-.3-.9.2-1.9 1.1-2.2.9-.3 1.9.1 2.2 1.1l16.8 47.1c.3.9-.1 1.9-1.1 2.2-.2.1-.4.1-.6.1-.7 0-1.4-.5-1.6-1.2z"/><path class="st21" d="M623 354.7l5-.2s4.8 4.1 4 6.3c-.5 1.5-8.1 1.3-8.4-.4-.1-1.7-.6-5.7-.6-5.7z"/><path class="st27" d="M600.2 169.3c0 3.8 3.1 6.9 6.9 6.9 3.8 0 6.9-3.1 6.9-6.9v-5.9c0-3.8-3.1-6.9-6.9-6.9-3.8 0-6.9 3.1-6.9 6.9v5.9zM588.5 142c0 2.8-2.3 5.2-5.2 5.2-2.9 0-5.2-2.3-5.2-5.2v-9.6c0-2.8 2.3-5.2 5.2-5.2 2.9 0 5.2 2.3 5.2 5.2v9.6z"/><g><path class="st27" d="M575.9 118.2c.3.8 1.5 1.1 2.5.7 1.1-.4 1.7-1.4 1.3-2.3L577 110c-.3-.8-1.5-1.1-2.5-.7-1.1.4-1.7 1.4-1.3 2.3l2.7 6.6z"/><path class="st21" d="M574.3 120.3l8-3.2-2.1-5.4-8.1 3.2z"/><path class="st42" d="M534.8 144.4c1.6 3.8 22.5-4.1 48.1-14.5s46.2-19.2 44.6-23c0 0-23.6 1.4-49.1 11.8-25.7 10.3-44 24.6-43.6 25.7z"/><path class="st42" d="M572.1 121.7c.6 1.4 2.2 2.1 3.7 1.6l7.6-3.1c1.4-.6 2.1-2.2 1.6-3.7-.6-1.4-2.2-2.1-3.7-1.6l-7.6 3.1c-1.5.6-2.2 2.3-1.6 3.7z"/></g></g><g><path class="st21" d="M404.7 371.4l25.4-49.5 2.4 1.3-25.4 49.4-2.4-1.2z"/><path class="st21" d="M409.9 367.9l-3.3-1s-4.3 5.1-3.3 6c1 .9 5.1 1.4 5.7-.3.5-1.8.9-4.7.9-4.7zM532.1 323.1l2.5-1.2 25.4 49.5-2.5 1.2-25.4-49.5z"/><path class="st21" d="M554.8 367.9l3.3-1s4.3 5.1 3.3 6c-1 .9-5.1 1.4-5.7-.3-.6-1.8-.9-4.7-.9-4.7z"/><g><path class="st41" d="M422.8 302.4c0-33.7 27.3-61 61-61s61 27.3 61 61-27.3 61-61 61c-33.7-.1-61-27.4-61-61z"/><path d="M426.2 313.3c0-31.8 25.8-57.5 57.5-57.5 31.8 0 57.5 25.8 57.5 57.5s-25.8 57.5-57.5 57.5c-31.8.1-57.5-25.7-57.5-57.5z" fill="#700b00"/><path class="st27" d="M422.8 313.3c0-33.7 27.3-61 61-61s61 27.3 61 61-27.3 61-61 61-61-27.3-61-61z"/><path d="M426.2 313.3c0-31.8 25.8-57.5 57.5-57.5 31.8 0 57.5 25.8 57.5 57.5s-25.8 57.5-57.5 57.5c-31.8.1-57.5-25.7-57.5-57.5z"/></g></g><g><path class="st27" d="M503 198.1c-.5 2.2-12.4 1.4-26.6-1.7-14.2-3.1-25.4-7.4-24.9-9.6.5-2.2 13.2-3.5 27.4-.3 14.2 3 24.5 9.4 24.1 11.6z"/><path class="st41" d="M501.8 196.8c.7-3-9.7-7.8-23.1-10.8-12.6-2.8-23.4-2.9-25.2-.4h-.1l-8.7 39.8 48.4 10.6 8.4-38.5c.1-.3.2-.5.3-.7z"/><path class="st28" d="M502 196.1c.1-.2.3-.4.3-.6.5-2.3-5.2-5.5-13.7-8.3l-10 44.1 15 3.3 8.4-38.5z"/><path class="st27" d="M469.7 222.5c-13.5-3-24.3-4.3-26.4-1.3h-.1l-.1.5c0 .1-.1.1-.1.2v.1l-.4 2.3c-.8 3.6 10.6 7.5 25.1 10.7 14.1 3.1 25.5 4.6 26.9 1.3v.1l.5-2.5c0-.1.1-.2.1-.2.8-3.9-11.1-8-25.5-11.2zM479.2 183.7c-13.5-3-25-3.4-27.1-.5h-.1l-.1.5c0 .1-.1.1-.1.2v.1l-.4 2.3c-.1.3 0 .6 0 .8v-.1h.1c2.1-2.9 13.5-2.5 27.1.5 13.2 2.9 23.2 7.2 24.4 10.7l.6-2.6c0-.1.1-.2.1-.2.8-3.8-10.1-8.6-24.5-11.7z"/><path class="st39" d="M492.1 235.6c-.4 2-10.7.5-23.8-2.3-13-2.9-23.9-6.1-23.5-8.1.4-2 11.2-.3 24.2 2.6 13.1 2.9 23.6 5.8 23.1 7.8z"/><path class="st27" d="M489.2 210.2c0 1.2-1 2.3-2.3 2.3h-6c-1.3 0-2.3-1-2.3-2.3v-6c0-1.2 1-2.3 2.3-2.3h6c1.3 0 2.3 1 2.3 2.3v6z"/><g><path class="st25" d="M482.2 205.7h3.8v43.2h-3.8z"/><path class="st25" d="M479.1 249.5c1.8-.5 6.4-1 9.9 0-1.5-3.4-2.3-4.6-2.3-4.6h-5.4l-2.2 4.6z"/></g><path class="st25" d="M486.9 207.6c0 1.5-1.2 2.7-2.7 2.7h-.5c-1.5 0-2.7-1.2-2.7-2.7v-.7c0-1.5 1.2-2.7 2.7-2.7h.5c1.5 0 2.7 1.2 2.7 2.7v.7z"/></g></g></g></g></svg>